<svg width="657" height="445" viewBox="0 0 657 445" fill="none" xmlns="http://www.w3.org/2000/svg">
<path d="M326.161 374.582H379.244V243.458H326.161V374.582Z" fill="#AEBECC"/>
<path d="M136.113 306.621L569.295 306.621C576.254 306.621 581.895 302.033 581.895 296.374V10.2476C581.895 4.58804 576.254 0.00012207 569.295 0.00012207L136.113 0.00012207C129.154 0.00012207 123.513 4.58804 123.513 10.2476L123.513 296.374C123.513 302.033 129.154 306.621 136.113 306.621Z" fill="#F0F0F0"/>
<path d="M141.465 265.411L563.942 265.411V15.6581L141.465 15.6581L141.465 265.411Z" fill="white"/>
<path d="M141.081 46.3133L563.558 46.3133V16.1474L141.081 16.1474V46.3133Z" fill="#000AFF"/>
<path d="M337.917 284.269C337.917 286.647 338.784 288.971 340.408 290.948C342.033 292.925 344.342 294.466 347.043 295.376C349.744 296.286 352.717 296.524 355.585 296.061C358.453 295.597 361.087 294.452 363.154 292.77C365.222 291.089 366.63 288.947 367.2 286.614C367.771 284.282 367.478 281.865 366.359 279.668C365.24 277.471 363.345 275.593 360.914 274.272C358.483 272.951 355.625 272.246 352.701 272.246C348.78 272.246 345.019 273.513 342.247 275.767C339.474 278.022 337.917 281.08 337.917 284.269Z" fill="#171359"/>
<path d="M272.393 76.2178L409.88 76.2178C412.916 76.2178 415.377 74.2169 415.377 71.7487C415.377 69.2804 412.916 67.2795 409.88 67.2795L272.393 67.2795C269.357 67.2795 266.896 69.2804 266.896 71.7487C266.896 74.2169 269.357 76.2178 272.393 76.2178Z" fill="#DFE1E8"/>
<path d="M272.393 92.3396L409.88 92.3396C412.916 92.3396 415.377 90.3387 415.377 87.8704C415.377 85.4022 412.916 83.4013 409.88 83.4013L272.393 83.4013C269.357 83.4013 266.896 85.4022 266.896 87.8704C266.896 90.3387 269.357 92.3396 272.393 92.3396Z" fill="#DFE1E8"/>
<path d="M409.88 108.461L272.39 108.461C270.933 108.461 269.536 107.991 268.505 107.153C267.475 106.315 266.896 105.178 266.896 103.993C266.896 103.407 267.038 102.825 267.313 102.283C267.589 101.741 267.994 101.248 268.504 100.833C269.014 100.417 269.62 100.088 270.287 99.8634C270.954 99.6387 271.668 99.523 272.39 99.523L409.88 99.523C411.337 99.523 412.735 99.9937 413.766 100.831C414.796 101.669 415.376 102.806 415.377 103.991V103.991C415.377 105.177 414.798 106.314 413.767 107.152C412.736 107.99 411.338 108.461 409.88 108.461Z" fill="#DFE1E8"/>
<path d="M343.338 247.839H184.972C178.626 247.832 172.541 245.778 168.053 242.128C163.566 238.479 161.04 233.531 161.031 228.369V150.015C161.04 144.853 163.566 139.905 168.053 136.255C172.541 132.606 178.626 130.552 184.972 130.545H343.338C349.685 130.552 355.769 132.606 360.257 136.255C364.745 139.905 367.27 144.853 367.28 150.015V228.356C367.275 233.52 364.751 238.471 360.263 242.124C355.775 245.776 349.688 247.832 343.338 247.839ZM184.972 132.986C179.419 132.991 174.096 134.788 170.169 137.981C166.242 141.174 164.034 145.504 164.027 150.02V228.361C164.033 232.878 166.241 237.208 170.168 240.402C174.095 243.596 179.419 245.392 184.972 245.398H343.338C348.892 245.392 354.216 243.596 358.143 240.402C362.069 237.208 364.278 232.878 364.284 228.361V150.015C364.277 145.499 362.068 141.169 358.142 137.976C354.215 134.783 348.891 132.986 343.338 132.981L184.972 132.986Z" fill="#DFE1E8"/>
<path d="M329.805 160.07L198.506 160.07C195.433 160.07 192.487 159.077 190.315 157.311C188.143 155.544 186.922 153.148 186.922 150.65C186.922 148.152 188.143 145.756 190.315 143.989C192.487 142.223 195.433 141.23 198.506 141.23H329.805C332.877 141.23 335.823 142.223 337.996 143.989C340.168 145.756 341.388 148.152 341.388 150.65V150.65C341.388 153.148 340.168 155.544 337.996 157.311C335.823 159.077 332.877 160.07 329.805 160.07Z" fill="#DFE1E8"/>
<path d="M472.114 369.632H233.296V379.531H472.114V369.632Z" fill="#171359"/>
<path d="M516.427 156.286C516.428 162.16 514.154 167.885 509.929 172.648C505.703 177.412 499.74 180.972 492.886 182.824C492.678 182.881 492.473 182.937 492.256 182.988C485.341 184.738 477.923 184.668 471.06 182.787C464.197 180.906 458.24 177.311 454.038 172.514C449.836 167.717 447.604 161.964 447.66 156.074C447.716 150.185 450.058 144.46 454.351 139.717C458.644 134.974 464.669 131.454 471.567 129.66C478.465 127.866 485.883 127.889 492.764 129.726C499.645 131.563 505.637 135.12 509.885 139.89C514.133 144.66 516.42 150.399 516.421 156.289L516.427 156.286Z" fill="#EEF0F7"/>
<path d="M473.84 153.332C473.84 153.332 471.49 140.979 484.072 141.207C496.654 141.435 496.484 147.542 496.26 153.606C496.037 159.67 491.22 159.212 496.651 167.645C502.082 176.079 491.944 176.079 491.944 176.079L484.069 167.282L473.84 153.332Z" fill="#3C4145"/>
<path d="M482.696 142.393C482.696 142.393 474.19 143.487 473.841 153.332C473.491 163.178 476.137 165.276 483.606 163.224C491.075 161.172 493.416 150.87 493.583 149.274C493.75 147.678 494.188 141.207 482.696 142.393Z" fill="#EEA886"/>
<path d="M497.662 176.64C497.686 177.935 497.248 179.209 496.401 180.306C495.554 181.403 494.334 182.277 492.889 182.822C492.681 182.878 492.474 182.935 492.259 182.986C483.816 185.111 474.691 184.519 466.768 181.333C465.732 179.653 467.231 177.265 470.28 173.602C472.029 170.933 474.688 168.732 477.939 167.264C482.798 166.344 487.891 166.717 492.47 168.327C494.206 169.178 495.612 170.409 496.53 171.879C497.448 173.348 497.84 174.998 497.662 176.64Z" fill="#FE6B03"/>
<path d="M471.957 173.453L468.038 178.474C468.038 178.446 468.306 177.688 468.75 175.485C468.835 175.067 468.926 174.598 469.021 174.071C469.05 173.914 469.091 173.759 469.144 173.607C470.831 171.256 473.286 169.331 476.238 168.048L471.957 173.453Z" fill="#E55353"/>
<path d="M499.404 180.424C497.34 181.406 495.156 182.21 492.886 182.822C492.681 182.878 492.473 182.935 492.256 182.986C491.386 181.162 490.634 179.584 490.47 179.176C490.423 179.056 490.312 178.836 490.155 178.536C488.908 176.353 488.128 174.014 487.846 171.619C487.846 170.054 488.476 168.767 490.407 168.404C491.08 168.268 491.78 168.247 492.464 168.34C493.437 168.565 494.326 168.985 495.047 169.562C495.769 170.139 496.301 170.854 496.594 171.642L496.628 171.711C496.983 172.431 497.242 173.18 497.4 173.945L497.498 174.252C497.621 174.642 497.854 175.385 498.156 176.356C498.509 177.465 498.941 178.882 499.404 180.424Z" fill="#EEA886"/>
<path d="M488.375 158.792C487.609 161.479 487.101 164.212 486.857 166.964C486.857 166.964 476.436 170.166 477.504 168.355C477.952 167.461 478.167 166.502 478.134 165.537C478.14 164.965 478.101 164.394 478.018 163.826C477.989 163.641 477.967 163.534 477.967 163.534C477.967 163.534 489.125 157.657 488.375 158.792Z" fill="#EEA886"/>
<path d="M479.221 149.459C481.476 152.482 484.293 155.203 487.572 157.526C491.551 159.804 489.535 161.625 489.535 161.625C489.535 161.625 499.93 143.848 490.048 142.616C480.166 141.384 474.124 141.294 473.844 153.327C473.84 153.332 478.329 149.369 479.221 149.459Z" fill="#3C4145"/>
<path d="M483.962 163.113C482.416 164.439 480.362 165.298 478.137 165.55C478.143 164.978 478.104 164.406 478.021 163.838C480.045 164.014 482.09 163.764 483.962 163.113Z" fill="#A77860"/>
<path d="M469.162 173.571C468.919 174.191 468.78 174.834 468.75 175.485L470.287 173.602C470.287 173.602 473.028 170.407 473.966 169.574C474.664 168.991 475.435 168.468 476.266 168.014C473.224 169.196 470.732 171.145 469.162 173.571Z" fill="#BD4444"/>
<path d="M489.9 178.336C492.712 177.403 495.61 176.648 498.566 176.079C498.566 176.079 497.221 167.346 490.653 168.27C484.085 169.195 489.9 178.336 489.9 178.336Z" fill="#E55353"/>
<path d="M477.945 167.266C477.945 167.266 473.037 173.415 474.698 173.942C477.618 174.033 480.514 173.47 483.069 172.316C485.624 171.161 487.74 169.459 489.188 167.394C487.436 166.716 485.524 166.354 483.584 166.332C481.644 166.309 479.72 166.628 477.945 167.266Z" fill="#EEA886"/>
<path d="M529.126 74.7242C529.126 81.9192 526.503 88.9526 521.587 94.935C516.672 100.917 509.686 105.58 501.512 108.333C493.338 111.087 484.344 111.807 475.667 110.404C466.989 109 459.019 105.535 452.763 100.448C446.507 95.36 442.246 88.878 440.52 81.8213C438.794 74.7646 439.68 67.4501 443.066 60.8028C446.452 54.1556 452.185 48.474 459.541 44.4767C466.898 40.4794 475.546 38.3459 484.393 38.3459C496.257 38.3459 507.635 42.1786 516.024 49.0008C524.413 55.8231 529.126 65.0761 529.126 74.7242Z" fill="#EEF0F7"/>
<path d="M513.533 94.7964L510.235 104.421C504.212 107.896 497.221 110.097 489.891 110.826C488.568 110.959 487.223 111.041 485.868 111.082C485.38 111.095 484.888 111.1 484.4 111.1C482.953 111.1 481.523 111.045 480.109 110.936C471.765 110.288 463.815 107.741 457.17 103.586C456.54 100.402 455.859 96.8792 455.261 93.5949C458.55 92.5983 469.011 89.706 475.617 87.8897L475.891 87.8154L476.323 87.6975L477.441 87.3901L478.468 87.1057L481.114 86.3833L481.25 86.3449H481.325L490.206 86.8854L491.696 86.9751L492.159 87.0033L492.364 87.0442C492.896 87.1544 494.455 87.4875 496.512 87.9998C501.786 89.3038 510.329 91.7888 513.533 94.7964Z" fill="#D9C7C1"/>
<path d="M486.725 56.6632C486.725 56.6632 497.376 58.126 495.568 71.6833C493.759 85.2407 484.347 84.0443 483.732 84.0187C483.118 83.9931 474.282 84.1826 473.812 67.6049C473.812 67.6228 473.677 55.354 486.725 56.6632Z" fill="#EEA987"/>
<path d="M491.393 80.094C491.182 82.3602 491.276 84.6384 491.674 86.888C492.32 88.1023 483.124 91.9451 477.407 87.5669C477.964 84.8402 478.231 82.0793 478.204 79.3152C477.845 77.1632 491.393 80.094 491.393 80.094Z" fill="#EEA987"/>
<path d="M495.794 67.8482C495.794 67.8482 496.975 66.844 497.391 67.8738C497.807 68.9037 495.501 73.474 495.646 73.6815C495.646 73.6815 495.429 74.0786 495.148 73.8558C495.213 71.8444 495.429 69.8382 495.794 67.8482Z" fill="#EEA987"/>
<path d="M473.935 67.4845C473.935 67.4845 472.804 66.4418 472.338 67.4588C472.4 69.4659 472.89 71.449 473.784 73.3203C473.784 73.3203 474.152 73.7892 474.439 73.5765C474.424 71.5394 474.256 69.5049 473.935 67.4845Z" fill="#EEA987"/>
<path d="M496.478 66.6877C496.112 68.5425 495.763 69.9234 495.763 69.9234L494.213 71.5681C494.274 70.1631 494.226 68.7564 494.068 67.3564C493.98 67.1412 493.873 66.7569 493.753 66.3316C493.573 65.6476 493.394 64.8714 493.268 64.6152C487.72 62.957 481.597 63.1159 476.191 65.0584C476.191 65.0584 476.257 65.6194 476.254 66.2445C476.254 66.9695 476.15 67.7816 475.743 67.9072C474.981 68.1352 475.299 72.1675 475.299 72.1675L474.061 71.0045C474.061 71.0045 473.702 68.8986 473.349 66.4751V66.4572C473.27 65.8935 473.188 65.312 473.11 64.7356C472.845 63.0144 473.069 61.2666 473.766 59.6272C474.463 57.9877 475.614 56.5003 477.129 55.2798C481.59 53.8977 486.523 53.9151 490.968 55.3284C491.686 55.3493 492.388 55.4998 493.025 55.7691C497.379 59.6887 496.478 66.6877 496.478 66.6877Z" fill="#FE6B03"/>
<path d="M478.931 82.2126C479.631 82.8569 480.506 83.3595 481.486 83.6802C482.467 84.0009 483.526 84.1308 484.58 84.0597C485.621 84.0961 486.661 83.9599 487.635 83.6596C488.61 83.3593 489.5 82.9009 490.25 82.3125C489.725 83.194 488.925 83.9484 487.931 84.5003C486.936 85.0523 485.78 85.3826 484.58 85.4584C483.372 85.3638 482.216 85.0146 481.226 84.4453C480.235 83.876 479.444 83.1065 478.931 82.2126Z" fill="#C78D71"/>
<path d="M476.329 87.6872C477.221 88.8745 478.425 89.8867 479.855 90.6511C481.284 91.4156 482.904 91.9134 484.598 92.109C488.032 92.3498 491.006 88.8093 492.401 87.0698C489.806 86.2992 487.048 85.9569 484.289 86.0629C481.529 86.1689 478.823 86.7211 476.329 87.6872Z" fill="#EEA987"/>
<path d="M491.403 85.7992C489.447 87.6735 487.149 89.2927 484.589 90.6001L487.471 94.2149L492.389 87.075L491.403 85.7992Z" fill="#EDDAD3"/>
<path d="M477.621 86.3346C479.524 88.1626 481.905 89.6224 484.589 90.6077L481.423 94.3301L475.892 87.8179L477.621 86.3346Z" fill="#EDDAD3"/>
<path d="M484.589 90.595L487.062 93.6538C486.288 93.989 485.422 94.1578 484.545 94.1443C483.669 94.1309 482.811 93.9356 482.053 93.577L484.589 90.595Z" fill="#5073AB"/>
<path d="M516.39 94.2277C515.965 95.4702 515.328 97.2788 513.649 102.246C513.136 102.607 512.613 102.961 512.074 103.299C511.473 103.686 510.858 104.068 510.231 104.421C504.209 107.896 497.217 110.097 489.887 110.826C490.549 98.2344 492.389 87.0673 492.389 87.0673C493.84 87.3764 495.215 87.6838 496.515 87.9895C503.112 89.3794 509.504 91.3429 515.584 93.8459L515.628 93.8664C516.151 94.1021 516.39 94.2277 516.39 94.2277Z" fill="#323657"/>
<path d="M475.454 110.37C466.804 108.933 458.871 105.447 452.653 100.351C452.379 100.125 452.108 99.8971 451.84 99.6665C451.055 96.9638 450.536 95.1987 450.501 95.0834C450.501 95.0834 456.033 92.127 475.614 87.8769C475.614 88.2458 475.624 98.4522 475.454 110.37Z" fill="#323657"/>
<path d="M486.004 93.9894C485.821 97.307 485.802 103.74 485.865 111.082C485.377 111.095 484.885 111.1 484.397 111.1C482.95 111.1 481.52 111.045 480.107 110.936C480.562 105.23 481.555 99.5614 483.077 93.9792C483.295 93.2465 483.427 92.8801 483.427 92.8801L486.054 93.2311C486.032 93.4643 486.016 93.7153 486.004 93.9894Z" fill="#5073AB"/>
<path d="M518.642 98.114C517.112 99.5922 515.44 100.97 513.643 102.233C513.129 102.595 512.607 102.948 512.068 103.286L516.38 94.2123C517.41 95.3947 518.176 96.7155 518.642 98.114Z" fill="#323657"/>
<path d="M452.653 100.353C452.379 100.128 452.108 99.8996 451.84 99.6691C450.84 98.8073 449.894 97.9052 449.005 96.9663C449.286 96.2376 449.805 95.5849 450.507 95.0782L452.653 100.353Z" fill="#323657"/>
<path d="M482.496 250.868C501.481 250.667 516.671 237.988 516.424 222.549C516.177 207.11 500.587 194.757 481.603 194.958C462.618 195.158 447.428 207.837 447.675 223.276C447.921 238.715 463.512 251.068 482.496 250.868Z" fill="#EEF0F7"/>
<path d="M482.053 234.051C481.593 234.051 481.153 233.903 480.828 233.639C480.503 233.374 480.32 233.016 480.32 232.642V213.172C480.32 212.798 480.503 212.44 480.828 212.176C481.153 211.912 481.593 211.763 482.053 211.763C482.512 211.763 482.953 211.912 483.278 212.176C483.603 212.44 483.785 212.798 483.785 213.172V232.642C483.786 232.827 483.741 233.011 483.654 233.182C483.567 233.353 483.44 233.508 483.279 233.639C483.118 233.77 482.927 233.874 482.716 233.945C482.506 234.015 482.28 234.052 482.053 234.051Z" fill="#949494"/>
<path d="M494.027 224.316H470.086C469.626 224.316 469.185 224.168 468.861 223.904C468.536 223.639 468.353 223.281 468.353 222.907C468.353 222.533 468.536 222.175 468.861 221.911C469.185 221.647 469.626 221.498 470.086 221.498H494.027C494.487 221.498 494.927 221.647 495.252 221.911C495.577 222.175 495.76 222.533 495.76 222.907C495.76 223.281 495.577 223.639 495.252 223.904C494.927 224.168 494.487 224.316 494.027 224.316Z" fill="#949494"/>
<path d="M397.039 131.767H401.471C403.297 131.767 405.105 132.059 406.791 132.627C408.478 133.195 410.011 134.028 411.302 135.078C412.592 136.128 413.616 137.374 414.315 138.746C415.014 140.117 415.373 141.587 415.373 143.072V146.679C415.373 148.164 415.014 149.634 414.315 151.006C413.616 152.377 412.592 153.624 411.302 154.673C410.011 155.723 408.478 156.556 406.791 157.124C405.105 157.692 403.297 157.985 401.471 157.985H397.039C393.352 157.985 389.816 156.794 387.208 154.673C384.6 152.553 383.135 149.678 383.134 146.679V143.075C383.134 140.076 384.599 137.199 387.207 135.079C389.815 132.958 393.351 131.767 397.039 131.767V131.767Z" fill="#43A046"/>
<path d="M398.233 150.65L390.084 144.87C389.915 144.76 389.775 144.623 389.673 144.468C389.571 144.313 389.509 144.143 389.49 143.967C389.471 143.792 389.496 143.615 389.563 143.448C389.63 143.281 389.737 143.126 389.88 142.993C390.022 142.861 390.196 142.753 390.39 142.676C390.585 142.599 390.797 142.556 391.013 142.547C391.229 142.539 391.445 142.566 391.648 142.627C391.851 142.688 392.037 142.782 392.194 142.903L397.956 146.989L406.175 139.534C406.314 139.402 406.484 139.294 406.676 139.216C406.867 139.138 407.076 139.092 407.29 139.08C407.503 139.069 407.718 139.092 407.92 139.149C408.122 139.206 408.309 139.295 408.468 139.411C408.627 139.528 408.757 139.669 408.848 139.826C408.939 139.984 408.991 140.154 409 140.328C409.009 140.502 408.976 140.676 408.901 140.839C408.826 141.002 408.712 141.152 408.566 141.279L398.233 150.65Z" fill="#F3F3F3"/>
<path d="M397.039 165.365H401.471C403.297 165.365 405.105 165.658 406.791 166.226C408.478 166.794 410.011 167.627 411.302 168.677C412.592 169.726 413.616 170.973 414.315 172.344C415.014 173.716 415.373 175.186 415.373 176.671V180.278C415.373 183.277 413.908 186.153 411.301 188.274C408.693 190.395 405.156 191.586 401.468 191.586H397.039C393.351 191.586 389.815 190.395 387.207 188.274C384.599 186.153 383.134 183.277 383.134 180.278V176.673C383.134 173.674 384.599 170.798 387.207 168.677C389.815 166.557 393.351 165.365 397.039 165.365V165.365Z" fill="#FE6B03"/>
<path d="M398.233 184.251L390.084 178.472C389.915 178.361 389.775 178.225 389.673 178.069C389.571 177.914 389.509 177.744 389.49 177.569C389.471 177.393 389.496 177.217 389.563 177.049C389.63 176.882 389.737 176.727 389.88 176.595C390.022 176.462 390.196 176.354 390.39 176.277C390.585 176.201 390.797 176.157 391.013 176.149C391.229 176.14 391.445 176.167 391.648 176.228C391.851 176.29 392.037 176.383 392.194 176.504L397.956 180.59L406.175 173.135C406.314 173.003 406.484 172.895 406.676 172.817C406.867 172.739 407.076 172.693 407.29 172.682C407.503 172.67 407.718 172.694 407.92 172.75C408.122 172.807 408.309 172.896 408.468 173.013C408.627 173.129 408.757 173.27 408.848 173.428C408.939 173.585 408.991 173.756 409 173.93C409.009 174.104 408.976 174.277 408.901 174.441C408.826 174.604 408.712 174.753 408.566 174.88L398.233 184.251Z" fill="#F3F3F3"/>
<path d="M397.039 198.964H401.471C403.297 198.964 405.105 199.256 406.791 199.825C408.478 200.393 410.011 201.226 411.302 202.275C412.592 203.325 413.616 204.571 414.315 205.943C415.014 207.315 415.373 208.785 415.373 210.27V213.877C415.373 216.876 413.908 219.752 411.301 221.873C408.693 223.993 405.156 225.185 401.468 225.185H397.039C395.213 225.185 393.405 224.892 391.717 224.324C390.03 223.755 388.497 222.922 387.206 221.872C385.915 220.821 384.89 219.574 384.192 218.202C383.493 216.83 383.134 215.359 383.134 213.874V210.272C383.134 207.273 384.599 204.397 387.207 202.276C389.815 200.155 393.351 198.964 397.039 198.964V198.964Z" fill="#00CBFE"/>
<path d="M190.441 238.396H185.539V419.563H190.441V238.396Z" fill="#706865"/>
<path d="M199.441 162.711H63.3788C56.4196 162.711 50.7781 167.299 50.7781 172.959V379.416C50.7781 385.076 56.4196 389.664 63.3788 389.664H199.441C206.401 389.664 212.042 385.076 212.042 379.416V172.959C212.042 167.299 206.401 162.711 199.441 162.711Z" fill="#2242CD"/>
<path d="M195.015 166.367H67.8043C60.8451 166.367 55.2036 170.955 55.2036 176.614V370.547C55.2036 376.206 60.8451 380.794 67.8043 380.794H195.015C201.974 380.794 207.616 376.206 207.616 370.547V176.614C207.616 170.955 201.974 166.367 195.015 166.367Z" fill="white"/>
<path d="M155.439 160.99H107.383V169.815H155.439V160.99Z" fill="#FE6B03"/>
<path d="M178.275 372.222H80.7201C76.9204 372.219 73.2776 370.99 70.5906 368.806C67.9035 366.621 66.3917 363.659 66.3867 360.569V315.403C66.3909 312.313 67.9023 309.35 70.5894 307.164C73.2766 304.979 76.9199 303.75 80.7201 303.747H178.275C182.075 303.75 185.718 304.979 188.406 307.164C191.093 309.35 192.604 312.313 192.608 315.403V360.569C192.603 363.659 191.091 366.621 188.404 368.806C185.717 370.99 182.075 372.219 178.275 372.222ZM80.7169 305.248C77.4061 305.251 74.2318 306.321 71.8907 308.225C69.5496 310.129 68.2329 312.711 68.2296 315.403V360.569C68.2337 363.261 69.5508 365.841 71.8918 367.745C74.2328 369.648 77.4066 370.719 80.7169 370.721H178.275C181.585 370.719 184.759 369.648 187.1 367.745C189.441 365.841 190.758 363.261 190.762 360.569V315.403C190.759 312.711 189.442 310.129 187.101 308.225C184.76 306.321 181.586 305.251 178.275 305.248H80.7169Z" fill="#B5DEFF"/>
<path d="M90.744 262.977H90.7219C90.8163 263.011 90.8289 263.013 90.744 262.977Z" fill="#323657"/>
<path d="M175.468 258.102C172.324 258.102 169.25 257.344 166.635 255.923C164.021 254.502 161.983 252.483 160.78 250.12C159.576 247.758 159.261 245.158 159.875 242.65C160.488 240.142 162.003 237.838 164.226 236.03C166.45 234.221 169.283 232.99 172.367 232.491C175.451 231.992 178.647 232.248 181.553 233.227C184.458 234.205 186.941 235.863 188.688 237.989C190.435 240.115 191.367 242.615 191.367 245.172C191.362 248.6 189.686 251.887 186.705 254.31C183.725 256.734 179.683 258.098 175.468 258.102ZM175.468 233.744C172.689 233.743 169.971 234.413 167.66 235.669C165.349 236.924 163.547 238.709 162.483 240.797C161.419 242.885 161.14 245.183 161.682 247.4C162.224 249.617 163.562 251.654 165.527 253.252C167.492 254.851 169.996 255.94 172.722 256.381C175.449 256.822 178.274 256.596 180.842 255.731C183.41 254.866 185.605 253.401 187.15 251.522C188.694 249.642 189.518 247.433 189.518 245.172C189.514 242.143 188.032 239.239 185.398 237.097C182.765 234.955 179.193 233.75 175.468 233.746V233.744Z" fill="#B5DEFF"/>
<path d="M175.468 287.894C172.324 287.894 169.25 287.136 166.635 285.715C164.021 284.294 161.983 282.275 160.78 279.912C159.576 277.55 159.261 274.95 159.875 272.442C160.488 269.934 162.003 267.63 164.226 265.821C166.45 264.013 169.283 262.782 172.367 262.283C175.451 261.784 178.647 262.04 181.553 263.019C184.458 263.997 186.941 265.655 188.688 267.781C190.435 269.907 191.367 272.407 191.367 274.964C191.362 278.392 189.686 281.678 186.705 284.102C183.725 286.526 179.683 287.89 175.468 287.894ZM175.468 263.538C172.69 263.538 169.973 264.208 167.663 265.464C165.352 266.719 163.551 268.504 162.488 270.592C161.425 272.679 161.146 274.977 161.688 277.193C162.231 279.41 163.569 281.446 165.534 283.043C167.499 284.641 170.002 285.73 172.727 286.17C175.453 286.611 178.278 286.385 180.845 285.52C183.412 284.655 185.607 283.191 187.15 281.312C188.694 279.433 189.518 277.224 189.518 274.964C189.514 271.935 188.032 269.031 185.398 266.889C182.765 264.747 179.193 263.542 175.468 263.538Z" fill="#B5DEFF"/>
<path d="M103.814 245.746C102.504 245.746 101.175 245.695 99.8672 245.592C90.3026 244.846 81.3603 241.402 74.5901 235.857C74.3224 235.64 74.0704 235.424 73.8373 235.225C72.9269 234.441 72.0448 233.603 71.2257 232.74C65.6272 226.887 62.6016 219.678 62.6321 212.263C62.6437 203.382 66.9867 194.869 74.7079 188.59C82.4292 182.31 92.8981 178.778 103.818 178.769V180.273C93.3882 180.282 83.3892 183.655 76.0145 189.652C68.6399 195.649 64.4921 203.781 64.4812 212.263C64.4517 219.345 67.3422 226.231 72.6906 231.82C73.4737 232.645 74.3074 233.438 75.1887 234.195C75.4092 234.389 75.6518 234.592 75.9038 234.799C82.3627 240.105 90.9073 243.398 100.047 244.104C101.307 244.199 102.567 244.25 103.827 244.25C104.284 244.25 104.706 244.25 105.119 244.235C106.312 244.201 107.503 244.13 108.659 244.012C115.104 243.364 121.25 241.428 126.549 238.376C127.107 238.053 127.652 237.72 128.168 237.387C128.619 237.1 129.082 236.79 129.551 236.459C131.136 235.348 132.611 234.137 133.962 232.837C139.913 227.071 143.176 219.785 143.179 212.258C143.179 210.687 143.039 209.118 142.76 207.564L144.587 207.346C144.88 208.974 145.027 210.616 145.028 212.26C145.025 220.141 141.607 227.769 135.376 233.805C133.967 235.166 132.428 236.435 130.774 237.599C130.285 237.943 129.794 238.271 129.328 238.568C128.789 238.914 128.219 239.262 127.636 239.593C122.086 242.785 115.649 244.809 108.902 245.485C107.692 245.608 106.445 245.685 105.197 245.718C104.734 245.739 104.29 245.746 103.814 245.746Z" fill="#B5DEFF"/>
<path d="M132.544 229.988C132.423 229.858 132.288 229.736 132.141 229.624C132.083 229.567 132.011 229.52 131.93 229.486L131.892 229.468C124.992 226.797 117.778 224.697 110.36 223.202C109.996 221.581 109.89 219.929 110.045 218.286C111.926 216.315 113.123 213.971 113.511 211.497C113.744 211.638 113.92 211.315 113.92 211.315C113.791 211.13 115.864 207.016 115.495 206.089C115.482 206.002 115.44 205.92 115.374 205.851C115.308 205.782 115.221 205.729 115.121 205.697C115.021 205.665 114.912 205.656 114.806 205.67C114.701 205.684 114.601 205.72 114.519 205.776C114.569 205.54 114.621 205.291 114.673 205.028C114.673 205.028 115.495 198.723 111.57 195.208C110.996 194.966 110.364 194.832 109.718 194.814C105.717 193.54 101.276 193.524 97.2621 194.77C95.8979 195.869 94.8624 197.208 94.2354 198.683C93.6083 200.159 93.4066 201.732 93.6456 203.281C93.7149 203.793 93.7905 204.323 93.8599 204.818V204.833C93.8882 205.033 93.9166 205.23 93.9481 205.425C93.8688 205.366 93.7713 205.325 93.6659 205.307C93.5605 205.289 93.4511 205.294 93.3491 205.323C93.2472 205.351 93.1566 205.401 93.0868 205.468C93.017 205.535 92.9706 205.615 92.9526 205.702C93.0096 207.508 93.4508 209.293 94.2568 210.977C94.2568 210.977 94.5718 211.399 94.8459 211.207C95.1934 213.806 96.367 216.287 98.2512 218.406C98.1126 220.43 97.6684 222.964 97.5456 223.632C94.3261 224.457 78.1846 227.952 73.2892 230.549C72.6569 231.005 72.1896 231.592 71.9377 232.248C72.7381 233.094 73.5908 233.906 74.4925 234.681C74.7319 234.889 74.9777 235.097 75.2234 235.299C81.835 240.728 90.5796 244.099 99.9334 244.824C101.193 244.921 102.491 244.973 103.795 244.973C104.24 244.973 104.678 244.973 105.115 244.955C106.338 244.924 107.545 244.848 108.738 244.727C115.336 244.071 121.629 242.09 127.05 238.962C127.614 238.634 128.165 238.299 128.707 237.95C129.186 237.646 129.652 237.328 130.118 237.003C131.736 235.864 133.24 234.624 134.617 233.293C134.086 232.13 133.39 231.021 132.544 229.988Z" fill="#118FDB"/>
<path d="M530.885 329.883H578.588V327.582H530.885V329.883Z" fill="#E2D2CA"/>
<path d="M572.196 335.877H568.016V440.609H572.196V335.877Z" fill="#706865"/>
<path d="M505.192 330.216H538.351V326.926H505.192V330.216Z" fill="#CCBDB7"/>
<path d="M515.492 329.883H528.049V298.869H515.492V329.883Z" fill="#4667A8"/>
<path d="M411.981 335.875H595.7V329.921H411.981V335.875Z" fill="#B59074"/>
<path d="M630.959 293.881C630.959 293.881 632.969 316.797 627.463 319.54C623.997 321.257 610.26 327.052 610.669 328.141C611.079 329.229 618.434 337.809 618.434 337.809C618.434 337.809 644.848 323.663 645.702 319.205C646.534 314.85 644.404 285.645 640.772 284.307C638.05 283.298 636.617 284.133 633.19 286.203C631.838 287.109 630.888 288.35 630.485 289.737C630.083 291.123 630.249 292.579 630.959 293.881Z" fill="#323657"/>
<path d="M582.819 300.424L580.488 299.722C580.488 299.722 583.392 294.178 584.659 294.314C585.764 294.449 586.86 294.632 587.941 294.862L582.819 300.424Z" fill="#EAD8CF"/>
<path d="M582.286 301.377C582.582 301.198 587.235 293.948 587.235 293.948L597.174 295.047L591.818 303.642L582.286 301.377Z" fill="#DA9B5B"/>
<path d="M598.459 426.308C598.459 426.308 599.282 430.945 599.386 431.642C599.49 432.339 608.521 431.232 608.521 431.232L609.252 425.712C605.639 425.614 602.023 425.814 598.459 426.308Z" fill="#424773"/>
<path d="M599.287 431.05C597.675 432.615 595.775 433.968 593.655 435.062C590.886 436.282 586.536 436.761 584.897 438.024C583.716 438.933 580.594 442.853 592.092 442.771C603.591 442.689 609.135 443.324 610.364 441.823C611.592 440.322 608.581 430.738 608.581 430.738C605.536 431.327 602.381 431.433 599.287 431.05Z" fill="#292C47"/>
<path d="M540.575 426.352C540.575 426.352 541.394 430.989 541.501 431.686C541.608 432.383 550.636 431.276 550.636 431.276L551.367 425.758C547.754 425.659 544.138 425.858 540.575 426.352Z" fill="#424773"/>
<path d="M541.4 431.097C539.787 432.661 537.888 434.013 535.767 435.106C532.998 436.325 522.811 437.324 521.173 438.585C519.991 439.494 518.022 443.158 534.205 442.815C545.7 442.571 551.247 443.368 552.476 441.867C553.705 440.365 550.693 430.779 550.693 430.779C547.658 431.42 544.49 431.528 541.4 431.097Z" fill="#292C47"/>
<path d="M627.601 346.214C627.601 346.214 594.751 350.736 587.332 351.684C579.914 352.632 539.686 360.771 534.655 363.251C530.651 365.226 536.756 412.649 538.18 430.74H554.026L555.175 376.467C574.19 376.854 587.755 372.85 601.603 374.561C615.451 376.273 626.99 378.701 635.789 369.105C635.789 369.105 636.116 348.313 627.601 346.214Z" fill="#292C47"/>
<path d="M595.227 430.781L610.663 430.013L612.169 376.47C618.063 376.617 623.961 376.313 629.785 375.561L642.253 351.991C631.325 353.767 596.32 360.958 591.652 363.248C587.648 365.226 593.8 412.69 595.227 430.781Z" fill="#292C47"/>
<path d="M612.484 246.079C612.484 246.079 600.441 243.374 595.848 250.975C591.255 258.576 593.328 272.989 599.404 274.344C605.481 275.699 614.21 274.139 616.73 269.407C619.481 264.445 620.823 259.043 620.659 253.601C620.289 251.853 619.329 250.224 617.885 248.896C616.441 247.567 614.571 246.592 612.484 246.079Z" fill="#EEA886"/>
<path d="M602.56 272.83C602.683 275.181 602.464 277.535 601.908 279.844C601.124 281.077 618.677 280.767 618.677 280.767C617.095 276.608 616.686 272.213 617.48 267.909C619.023 262.055 602.56 272.83 602.56 272.83Z" fill="#EEA886"/>
<path d="M618.412 265.721C618.412 265.721 617.467 267.273 612.931 267.022C608.395 266.771 602.394 262.314 600.469 261.917C598.544 261.52 598.425 260.636 598.425 260.636L597.404 262.111L595.429 262.367C595.429 262.367 596.771 257.9 593.854 256.327C590.937 254.754 595.17 242.085 609.982 245.142C609.982 245.142 621.289 246.825 621.44 251.961C621.591 257.098 620.608 262.99 618.412 265.721Z" fill="#3A3F47"/>
<path d="M600.992 279.696C600.992 279.696 601.042 277.342 602.353 277.116C607.437 276.37 612.594 275.999 617.76 276.009L618.45 279.12C618.45 279.12 615.332 280.669 600.992 279.696Z" fill="#E2D2CA"/>
<path d="M597.363 259.57C597.7 257.641 600.4 255.422 601.943 258.43C603.487 261.438 600.901 265.816 599.168 265.58C597.435 265.344 596.906 262.191 597.363 259.57Z" fill="#EEA886"/>
<path d="M548.69 307.52C548.693 307.519 548.696 307.518 548.699 307.518C548.702 307.518 548.706 307.519 548.709 307.52C548.62 307.551 548.605 307.554 548.69 307.52Z" fill="#323657"/>
<path d="M615.993 247.45C615.993 247.45 630.673 246.889 618.557 265.526L615.993 247.45Z" fill="#3A3F47"/>
<path d="M648.705 437.132L647.612 439.633L601.465 428.004L603.67 422.945L648.705 437.132Z" fill="#918783"/>
<path d="M599.883 426.224H605.128V385.421H599.883V426.224Z" fill="#918783"/>
<path d="M587.037 385.657H617.972V383.254H587.037V385.657Z" fill="#5E5854"/>
<path d="M555.901 437.132L556.994 439.633L603.141 428.004L601.112 422.625L555.901 437.132Z" fill="#918783"/>
<path d="M588.413 439.364V442.269L603.14 428.002L601.112 422.622L588.413 439.364Z" fill="#918783"/>
<path d="M551.587 440.609C551.587 441.302 551.84 441.981 552.314 442.557C552.788 443.134 553.462 443.584 554.25 443.849C555.038 444.114 555.905 444.184 556.741 444.049C557.578 443.913 558.346 443.579 558.949 443.089C559.553 442.598 559.963 441.973 560.13 441.293C560.296 440.613 560.211 439.908 559.884 439.267C559.558 438.626 559.005 438.078 558.296 437.693C557.587 437.307 556.753 437.102 555.9 437.102C555.334 437.102 554.773 437.192 554.25 437.369C553.726 437.545 553.251 437.803 552.851 438.129C552.45 438.454 552.132 438.841 551.916 439.267C551.699 439.692 551.587 440.148 551.587 440.609Z" fill="#BFB2AC"/>
<path d="M588.048 440.609C588.048 441.302 588.301 441.981 588.775 442.557C589.249 443.134 589.922 443.584 590.71 443.849C591.498 444.114 592.365 444.184 593.202 444.049C594.038 443.913 594.807 443.579 595.41 443.089C596.013 442.598 596.424 441.973 596.59 441.293C596.757 440.613 596.671 439.908 596.345 439.267C596.018 438.626 595.466 438.078 594.756 437.693C594.047 437.307 593.213 437.102 592.36 437.102C591.217 437.102 590.12 437.471 589.311 438.129C588.502 438.787 588.048 439.679 588.048 440.609Z" fill="#BFB2AC"/>
<path d="M644.392 440.609C644.392 441.302 644.645 441.981 645.119 442.557C645.593 443.134 646.266 443.584 647.054 443.849C647.842 444.114 648.71 444.184 649.546 444.049C650.383 443.913 651.151 443.579 651.754 443.089C652.357 442.598 652.768 441.973 652.934 441.293C653.101 440.613 653.015 439.908 652.689 439.267C652.363 438.626 651.81 438.078 651.101 437.693C650.391 437.307 649.558 437.102 648.705 437.102C647.561 437.102 646.465 437.472 645.656 438.13C644.847 438.787 644.393 439.679 644.392 440.609Z" fill="#BFB2AC"/>
<path d="M633.348 383.254H571.258C569.772 383.254 568.348 382.774 567.297 381.92C566.247 381.065 565.657 379.907 565.657 378.699C565.657 377.491 566.247 376.334 567.296 375.48C568.346 374.626 569.77 374.146 571.255 374.146H633.348C634.833 374.146 636.257 374.626 637.307 375.48C638.358 376.333 638.948 377.491 638.949 378.699V378.699C638.949 379.907 638.359 381.065 637.308 381.92C636.258 382.774 634.833 383.254 633.348 383.254V383.254Z" fill="#E2D2CA"/>
<path d="M435.488 440.609H439.668V335.877H435.488V440.609Z" fill="#706865"/>
<path d="M564.62 313.807H478.935C475.922 313.807 473.031 312.833 470.9 311.101C468.77 309.368 467.572 307.017 467.572 304.566V260.846C467.572 258.395 468.77 256.045 470.9 254.312C473.031 252.579 475.922 251.605 478.935 251.605H564.617C567.631 251.605 570.522 252.579 572.654 254.312C574.785 256.046 575.983 258.397 575.983 260.848V304.566C575.983 307.017 574.786 309.368 572.655 311.101C570.524 312.833 567.634 313.807 564.62 313.807V313.807Z" fill="#171359"/>
<path d="M471.803 304.062H571.736V254.969H471.803V304.062Z" fill="#F5F7FF"/>
<path d="M471.803 258.876H571.736V254.969H471.803V258.876Z" fill="#CECFD6"/>
<path d="M481.521 301.039H481.524C484.851 301.039 487.547 298.846 487.547 296.14V266.712C487.547 264.007 484.851 261.814 481.524 261.814H481.521C478.195 261.814 475.498 264.007 475.498 266.712V296.14C475.498 298.846 478.195 301.039 481.521 301.039Z" fill="#CECFD6"/>
<path d="M566.677 265.447H549.165C548.573 265.447 548.005 265.255 547.586 264.915C547.167 264.574 546.932 264.112 546.932 263.63C546.932 263.149 547.167 262.687 547.586 262.346C548.005 262.006 548.573 261.814 549.165 261.814H566.677C567.27 261.814 567.838 262.006 568.257 262.346C568.676 262.687 568.911 263.149 568.911 263.63V263.63C568.911 264.112 568.676 264.574 568.257 264.915C567.838 265.255 567.27 265.447 566.677 265.447V265.447Z" fill="#CECFD6"/>
<path d="M561.064 302.038H554.763C552.683 302.038 550.688 301.366 549.217 300.169C547.746 298.973 546.919 297.351 546.919 295.659V274.262C546.919 272.57 547.746 270.947 549.218 269.75C550.689 268.553 552.685 267.881 554.767 267.881H561.067C563.147 267.881 565.142 268.553 566.613 269.749C568.084 270.945 568.911 272.568 568.911 274.26V295.656C568.911 297.349 568.084 298.972 566.613 300.169C565.141 301.365 563.145 302.038 561.064 302.038Z" fill="#CECFD6"/>
<path d="M518.271 308.77C518.272 309.333 518.477 309.882 518.862 310.35C519.246 310.817 519.793 311.181 520.432 311.396C521.071 311.611 521.774 311.667 522.452 311.557C523.13 311.447 523.753 311.176 524.241 310.778C524.73 310.38 525.063 309.873 525.197 309.322C525.332 308.77 525.263 308.199 524.998 307.679C524.733 307.16 524.285 306.716 523.71 306.403C523.135 306.091 522.459 305.924 521.768 305.924C520.84 305.925 519.951 306.225 519.295 306.759C518.639 307.292 518.271 308.016 518.271 308.77Z" fill="#FFBA12"/>
<path d="M499.326 330.008V328.901C499.326 328.901 501.238 322.015 514.762 322.015C528.286 322.015 528.024 330.008 528.024 330.008H499.326Z" fill="#314875"/>
<path d="M528.207 323.035C526.829 322.967 525.473 322.726 524.187 322.32C523.11 321.792 516.668 318.267 515.149 318.831C513.631 319.394 503.56 321.905 503.913 323.104C504.265 324.303 505.195 324.188 505.907 323.975C508.748 323.358 511.65 322.939 514.579 322.722C514.579 322.722 507.393 324.856 507.365 326.411C507.337 327.966 508.868 328.346 509.548 328.935C510.229 329.524 511.051 330.984 512.903 331.097C514.755 331.21 523.79 328.653 525.652 328.535C527.5 328.577 529.349 328.526 531.19 328.384C530.35 326.547 529.353 324.759 528.207 323.035Z" fill="#EEA886"/>
<path d="M581.732 282.96C591.107 281.62 600.976 279.696 600.976 279.696L618.438 279.117C626.021 280.43 633.484 282.163 640.776 284.305C641.374 284.525 641.377 295.93 643.019 298.923L637.786 307.889C637.786 307.889 634.762 325.671 634.135 333.582C633.849 337.212 634.948 368.679 634.948 368.679C630.536 369.617 626.019 370.186 621.465 370.378C609.548 371.446 579.772 369.991 579.587 368.841C579.401 367.691 585.351 326.219 585.616 324.072C586.022 320.775 584.444 305.542 584.444 305.542C582.198 307.994 576.474 319.072 570.508 324.341C566.995 327.441 549.619 329.342 546.343 329.429C539.211 329.624 526.207 330.777 525.826 330.213C525.511 329.875 524.692 320.824 525.511 320.604C526.223 320.411 550.378 319.279 556.565 316.61C558.83 315.631 565.597 303.631 565.597 303.631C565.597 303.631 576.559 284.848 581.732 282.96Z" fill="#323657"/>
<path d="M634.192 367.77H627.403C624.531 367.77 621.686 367.31 619.032 366.416C616.378 365.522 613.967 364.211 611.935 362.56C609.904 360.908 608.293 358.947 607.193 356.788C606.094 354.63 605.528 352.317 605.528 349.98V328.632C605.528 326.296 606.094 323.983 607.193 321.825C608.293 319.666 609.904 317.705 611.935 316.053C613.967 314.401 616.378 313.091 619.032 312.197C621.686 311.303 624.531 310.843 627.403 310.843H634.195C639.997 310.843 645.561 312.717 649.663 316.053C653.765 319.39 656.07 323.914 656.07 328.632V349.978C656.07 354.697 653.765 359.222 649.662 362.559C645.559 365.895 639.994 367.77 634.192 367.77V367.77Z" fill="#E2D2CA"/>
<path d="M614.484 380.987C617.837 381.097 621.18 380.613 624.281 379.569C627.381 378.524 630.165 376.944 632.44 374.938C642.546 365.867 640.728 349.919 640.646 349.245C640.573 348.642 640.208 348.087 639.631 347.703C639.055 347.318 638.314 347.136 637.572 347.196C636.83 347.255 636.148 347.553 635.675 348.021C635.202 348.49 634.978 349.093 635.052 349.696C635.071 349.878 636.684 364.332 628.263 371.879C626.515 373.411 624.374 374.611 621.992 375.395C619.609 376.179 617.044 376.528 614.478 376.416C614.101 376.406 613.725 376.457 613.373 376.568C613.021 376.678 612.7 376.845 612.428 377.058C612.157 377.272 611.941 377.527 611.794 377.81C611.647 378.092 611.571 378.396 611.571 378.703C611.571 379.01 611.647 379.313 611.794 379.596C611.941 379.878 612.157 380.134 612.428 380.347C612.7 380.561 613.021 380.727 613.373 380.838C613.725 380.948 614.101 380.999 614.478 380.989L614.484 380.987Z" fill="#E2D2CA"/>
<path d="M523.223 275.033C523.223 277.304 522.395 279.523 520.844 281.411C519.293 283.299 517.089 284.77 514.509 285.639C511.93 286.508 509.092 286.735 506.353 286.293C503.615 285.85 501.1 284.756 499.126 283.151C497.152 281.545 495.807 279.5 495.263 277.273C494.718 275.046 494.998 272.738 496.066 270.64C497.134 268.543 498.944 266.75 501.265 265.488C503.586 264.227 506.316 263.554 509.107 263.554C512.851 263.554 516.442 264.763 519.089 266.916C521.736 269.069 523.223 271.989 523.223 275.033Z" fill="#EEF0F7"/>
<path d="M518.299 281.369L517.257 284.405C515.357 285.501 513.152 286.196 510.84 286.426C510.421 286.467 509.999 286.495 509.58 286.505C509.425 286.505 509.265 286.505 509.117 286.505C508.66 286.505 508.206 286.49 507.762 286.454C507.267 286.422 506.775 286.369 506.288 286.295C504.189 285.948 502.216 285.216 500.52 284.154C500.318 283.149 500.107 282.04 499.918 281C500.954 280.687 504.256 279.773 506.341 279.207L506.426 279.184L506.562 279.145L506.918 279.048L507.233 278.958L508.068 278.73H508.112H508.134L510.934 278.902L511.404 278.93H511.552L511.615 278.943C511.782 278.979 512.273 279.081 512.925 279.242C514.887 279.621 516.722 280.347 518.299 281.369Z" fill="#D9C7C1"/>
<path d="M509.841 269.333C509.841 269.333 513.199 269.797 512.629 274.072C512.059 278.348 509.091 277.974 508.893 277.969C508.694 277.964 505.91 278.02 505.765 272.789C505.765 272.789 505.721 268.923 509.841 269.333Z" fill="#EEA987"/>
<path d="M511.313 276.73C511.246 277.445 511.276 278.164 511.401 278.874C511.606 279.256 508.704 280.47 506.899 279.089C507.075 278.228 507.16 277.356 507.151 276.484C507.038 275.805 511.313 276.73 511.313 276.73Z" fill="#EEA987"/>
<path d="M512.698 272.863C512.698 272.863 513.07 272.548 513.202 272.863C513.334 273.179 512.607 274.631 512.651 274.695C512.651 274.695 512.585 274.821 512.497 274.749C512.517 274.118 512.584 273.488 512.698 272.863Z" fill="#EEA987"/>
<path d="M505.806 272.748C505.806 272.748 505.45 272.418 505.302 272.748C505.322 273.382 505.478 274.008 505.762 274.598C505.762 274.598 505.875 274.746 505.967 274.68C505.962 274.034 505.908 273.389 505.806 272.748Z" fill="#EEA987"/>
<path d="M512.928 272.502C512.812 273.086 512.705 273.527 512.705 273.527L512.216 274.039C512.235 273.596 512.22 273.152 512.169 272.71C512.141 272.641 512.109 272.52 512.075 272.39C512.018 272.174 511.961 271.928 511.92 271.846C510.17 271.324 508.239 271.375 506.534 271.987C506.534 271.987 506.552 272.162 506.552 272.361C506.552 272.561 506.518 272.848 506.392 272.874C506.152 272.945 506.25 274.219 506.25 274.219L505.859 273.852C505.859 273.852 505.746 273.189 505.636 272.425C505.611 272.246 505.585 272.064 505.56 271.882C505.476 271.34 505.546 270.789 505.765 270.271C505.983 269.754 506.344 269.284 506.82 268.898C508.228 268.462 509.784 268.468 511.186 268.913C511.413 268.919 511.635 268.966 511.835 269.051C512.701 270.056 513.09 271.282 512.928 272.502Z" fill="#E8734D"/>
<path d="M507.377 277.395C507.598 277.599 507.875 277.757 508.184 277.859C508.494 277.96 508.828 278.001 509.16 277.979C509.491 277.992 509.821 277.95 510.131 277.855C510.441 277.76 510.724 277.615 510.962 277.429C510.796 277.707 510.543 277.945 510.229 278.119C509.914 278.293 509.549 278.397 509.17 278.42C508.787 278.391 508.42 278.281 508.106 278.102C507.792 277.922 507.54 277.678 507.377 277.395Z" fill="#C78D71"/>
<path d="M506.556 279.125C506.837 279.499 507.217 279.818 507.668 280.059C508.119 280.3 508.63 280.457 509.164 280.518C510.248 280.595 511.187 279.476 511.628 278.927C510.808 278.685 509.938 278.577 509.067 278.611C508.196 278.645 507.343 278.82 506.556 279.125Z" fill="#EEA987"/>
<path d="M511.316 278.535C510.698 279.128 509.972 279.639 509.164 280.052L510.074 281.192L511.627 278.94L511.316 278.535Z" fill="#EDDAD3"/>
<path d="M506.968 278.697C507.571 279.273 508.324 279.732 509.173 280.042L508.174 281.215L506.426 279.166L506.968 278.697Z" fill="#EDDAD3"/>
<path d="M509.167 280.042L509.948 281.005C509.705 281.11 509.433 281.163 509.157 281.159C508.881 281.155 508.612 281.094 508.373 280.982L509.167 280.042Z" fill="#5073AB"/>
<path d="M519.204 281.182L519.182 281.246C519.097 281.502 518.769 282.447 518.337 283.713C518.177 283.826 518.022 283.938 517.843 284.046C517.663 284.154 517.458 284.287 517.26 284.4C515.36 285.496 513.155 286.191 510.843 286.421C511.051 282.447 511.631 278.925 511.631 278.925C512.087 279.022 512.522 279.119 512.932 279.217C515.013 279.655 517.03 280.274 518.948 281.064C519.128 281.148 519.204 281.182 519.204 281.182Z" fill="#323657"/>
<path d="M506.281 286.293C503.553 285.837 501.051 284.737 499.086 283.131L498.831 282.916C498.582 282.063 498.422 281.505 498.409 281.469C500.916 280.431 503.581 279.667 506.335 279.196C506.335 279.301 506.338 282.524 506.281 286.293Z" fill="#323657"/>
<path d="M509.627 281.113C509.57 282.16 509.564 284.187 509.583 286.505C509.428 286.505 509.268 286.505 509.12 286.505C508.663 286.505 508.209 286.49 507.765 286.454C507.911 284.653 508.227 282.864 508.71 281.102C508.779 280.872 508.82 280.757 508.82 280.757L509.649 280.869C509.627 280.946 509.627 281.031 509.627 281.113Z" fill="#5073AB"/>
<path d="M519.912 282.419C519.43 282.886 518.904 283.321 518.337 283.721C518.177 283.833 518.022 283.946 517.843 284.054C517.843 284.041 518.655 282.13 519.204 281.192C519.575 281.392 519.742 282.081 519.912 282.419Z" fill="#323657"/>
<path d="M499.087 283.111L498.828 282.896C498.512 282.624 498.214 282.339 497.934 282.043C498.021 281.813 498.185 281.607 498.406 281.448L499.087 283.111Z" fill="#323657"/>
<path d="M230.351 67.0105H181.929C170.09 67.0105 160.492 74.8157 160.492 84.4439V89.6676C160.492 99.2958 170.09 107.101 181.929 107.101H230.351C242.19 107.101 251.788 99.2958 251.788 89.6676V84.4439C251.788 74.8157 242.19 67.0105 230.351 67.0105Z" fill="#DFE1E8"/>
<path d="M113.517 268.319H113.495C113.586 268.352 113.599 268.355 113.517 268.319Z" fill="#323657"/>
<path d="M71.1248 261.927H136.494C138.944 261.927 140.93 260.312 140.93 258.32V258.317C140.93 256.325 138.944 254.71 136.494 254.71H71.1248C68.6752 254.71 66.6893 256.325 66.6893 258.317V258.32C66.6893 260.312 68.6752 261.927 71.1248 261.927Z" fill="#000AFF"/>
<path d="M71.1248 274.938H136.494C138.944 274.938 140.93 273.324 140.93 271.331C140.93 269.339 138.944 267.724 136.494 267.724H71.1248C68.6752 267.724 66.6893 269.339 66.6893 271.331C66.6893 273.324 68.6752 274.938 71.1248 274.938Z" fill="#000AFF"/>
<path d="M136.494 287.953H71.1248C70.5423 287.953 69.9655 287.859 69.4274 287.678C68.8893 287.497 68.4003 287.231 67.9884 286.896C67.5766 286.561 67.2499 286.164 67.027 285.726C66.8041 285.288 66.6893 284.819 66.6893 284.346C66.6889 283.872 66.8032 283.403 67.0258 282.965C67.2483 282.527 67.5746 282.129 67.9862 281.794C68.3978 281.459 68.8865 281.193 69.4245 281.012C69.9625 280.83 70.5392 280.736 71.1216 280.736H136.494C137.077 280.736 137.654 280.829 138.192 281.011C138.731 281.192 139.22 281.458 139.632 281.793C140.044 282.129 140.37 282.527 140.593 282.964C140.816 283.402 140.93 283.872 140.93 284.346C140.93 285.302 140.462 286.22 139.631 286.896C138.799 287.573 137.671 287.953 136.494 287.953V287.953Z" fill="#000AFF"/>
<path d="M174.136 176.089H176.804C180.266 176.09 183.585 177.209 186.033 179.2C188.48 181.19 189.855 183.89 189.855 186.706V216.269C189.855 219.085 188.48 221.785 186.032 223.776C183.584 225.767 180.263 226.886 176.801 226.886H174.133C170.671 226.886 167.35 225.767 164.902 223.776C162.454 221.785 161.078 219.085 161.078 216.269V186.708C161.078 183.892 162.454 181.191 164.903 179.199C167.352 177.208 170.673 176.089 174.136 176.089V176.089Z" fill="#FE9D00"/>
<path d="M10.3293 317.814C10.9439 318.635 11.3658 319.542 11.5736 320.488C11.9067 321.591 12.4183 322.654 13.0951 323.647C13.905 325.354 14.5229 327.117 14.9412 328.914C14.5435 330.07 14.2519 331.248 14.0686 332.439C14.2166 333.208 14.7521 334.712 13.911 334.814C13.0699 334.917 12.1123 333.677 12.1123 333.677C12.1339 333.87 12.0858 334.065 11.974 334.237C11.8621 334.409 11.6913 334.551 11.4823 334.645C11.1681 334.809 10.8055 334.901 10.4326 334.912C10.0596 334.923 9.68991 334.852 9.36218 334.707C9.36218 334.707 8.84871 335.475 8.20922 335.585C7.85749 335.669 7.48807 335.691 7.12498 335.651C6.76189 335.611 6.41327 335.509 6.10176 335.352C5.64053 335.635 5.07542 335.782 4.49831 335.77C4.13137 335.759 3.77425 335.671 3.46252 335.513C3.15078 335.355 2.89532 335.134 2.7216 334.871C2.7216 334.871 1.14652 335.127 0.680294 334.532C0.372865 333.964 0.18033 333.358 0.110112 332.739C-0.0506692 329.654 0.634771 326.579 2.11676 323.737C2.69008 322.616 2.94128 321.403 2.85121 320.191C2.76114 318.979 2.33218 317.8 1.597 316.743L10.3293 317.814Z" fill="#EEA886"/>
<path d="M12.3361 333.218C12.3361 333.218 12.4779 328.807 11.0477 327.869C9.6175 326.931 9.47259 328.522 9.47259 328.522C9.47259 328.522 9.66791 326.947 8.10541 326.729C6.54292 326.511 6.47992 328.387 6.47992 328.387C6.44288 328.218 6.36302 328.058 6.24549 327.917C6.12796 327.775 5.97534 327.655 5.7974 327.564C5.61947 327.473 5.42015 327.413 5.2122 327.389C5.00425 327.364 4.79226 327.375 4.58981 327.421C2.95172 327.677 3.32974 329.214 3.32974 329.214C3.32974 329.214 1.75464 327.695 0.746583 329.152C0.265099 329.994 0.010651 330.909 0.000327254 331.837C-0.00999654 332.765 0.224052 333.684 0.686739 334.532C0.686739 334.532 1.1687 335.198 2.72804 334.873C2.88046 335.113 3.0989 335.321 3.36634 335.481C3.63377 335.64 3.94299 335.748 4.26985 335.794C4.59671 335.841 4.93239 335.825 5.25073 335.749C5.56906 335.673 5.86143 335.538 6.10506 335.355C6.10506 335.355 8.49289 336.423 9.36549 334.709C9.67523 334.856 10.0282 334.932 10.3867 334.928C10.7451 334.924 11.0956 334.841 11.4007 334.688C11.7058 334.535 11.954 334.318 12.1187 334.059C12.2835 333.8 12.3586 333.509 12.3361 333.218Z" fill="#DB9C7C"/>
<path d="M28.7328 254.264C28.7328 254.264 19.4461 279.435 16.3085 288.721C15.3256 291.632 12.9441 319.438 12.5283 320.56C12.1125 321.682 0.327637 323.214 0.327637 323.214C0.327637 323.214 1.75467 288.427 1.90273 286.531C2.05078 284.635 14.9004 245.797 18.6396 244.399C21.4433 243.361 22.9239 244.219 26.4552 246.353C27.8443 247.289 28.8187 248.569 29.23 249.997C29.6412 251.426 29.4666 252.924 28.7328 254.264Z" fill="#323657"/>
<path d="M140.55 207.695L119.291 219.003L120.324 220.287L141.583 208.979L140.55 207.695Z" fill="#4DA8F2"/>
<path d="M143.85 214.197C143.759 214.675 143.573 215.137 143.302 215.567C143.302 215.567 142.606 216.241 142.149 216.743C142.028 216.872 141.917 217.007 141.815 217.146C141.379 217.958 140.785 218.707 140.057 219.367C139.046 220.202 135.102 222.856 135.102 222.856L131.725 220.525L128.216 219.244C128.904 216.587 129.839 213.977 131.013 211.435C131.092 211.353 131.177 211.274 131.268 211.2C131.948 210.728 132.687 210.316 133.473 209.97C133.643 209.855 135.448 208.797 136.094 208.945C136.457 209.001 136.796 209.131 137.079 209.324C137.363 209.516 137.581 209.764 137.713 210.044C138.643 210.272 139.476 210.708 140.117 211.302C140.59 211.417 141.024 211.619 141.386 211.893C141.748 212.166 142.029 212.503 142.206 212.878C142.206 212.878 143.777 213.38 143.85 214.197Z" fill="#EFAA88"/>
<path d="M21.1976 426.121C21.1976 426.121 20.3502 430.899 20.2525 431.619C20.1549 432.339 10.8366 431.197 10.8366 431.197L10.0837 425.507C13.8044 425.406 17.5279 425.612 21.1976 426.121Z" fill="#424773"/>
<path d="M20.3468 431.009C22.0073 432.623 23.9647 434.017 26.1494 435.144C29.0035 436.397 33.4862 436.897 35.1747 438.195C36.3938 439.133 39.6101 443.171 27.7592 443.089C15.9082 443.007 10.1969 443.66 8.92741 442.112C7.65789 440.565 10.764 430.687 10.764 430.687C13.9029 431.295 17.1567 431.404 20.3468 431.009Z" fill="#292C47"/>
<path d="M87.912 426.121C87.912 426.121 87.0646 430.899 86.967 431.619C86.8693 432.339 77.5512 431.196 77.5512 431.196L76.7983 425.507C80.5189 425.406 84.2424 425.612 87.912 426.121Z" fill="#424773"/>
<path d="M87.0579 431.009C88.7187 432.622 90.676 434.017 92.8605 435.144C95.7115 436.397 106.211 437.429 107.9 438.731C109.119 439.668 111.144 443.442 94.4703 443.086C82.6256 442.83 76.9048 443.657 75.6385 442.11C74.3721 440.563 77.475 430.684 77.475 430.684C80.6046 431.345 83.8715 431.456 87.0579 431.009Z" fill="#292C47"/>
<path d="M28.9094 303.342C28.9094 303.342 20.1613 314.647 20.8134 324.861C21.4655 335.075 17.6412 346.235 16.3275 356.91C14.8627 368.81 8.8679 396.98 8.64739 403.346C8.42688 409.713 9.59245 430.038 9.59245 430.038L21.5946 430.261C21.5946 430.261 31.6752 381.012 34.2867 375.986C36.8982 370.959 49.8423 335.134 50.2802 331.112C50.718 327.09 28.9094 303.342 28.9094 303.342Z" fill="#292C47"/>
<path d="M74.9615 304.866C74.9615 304.866 81.5549 332.872 82.4243 339.123C83.2938 345.374 83.8734 369.389 84.3144 373.296C84.7554 377.203 88.3781 424.328 89.5343 430.251H74.1898C74.1898 430.251 62.4112 395.922 62.4112 379.659C62.4112 363.397 53.3135 344.337 47.4384 333.615C41.5633 322.894 28.1184 322.643 24.5051 302.75C24.4988 302.76 70.0725 298.564 74.9615 304.866Z" fill="#292C47"/>
<path d="M43.5071 208.305C43.5071 208.305 55.251 204.739 60.663 212.007C66.075 219.275 65.5552 233.828 59.636 235.619C53.7168 237.41 44.8302 236.472 41.7934 231.925C38.5092 227.16 36.5842 221.856 36.1609 216.405C36.3402 214.634 37.1223 212.937 38.4198 211.507C39.7172 210.076 41.4787 208.967 43.5071 208.305Z" fill="#EEA886"/>
<path d="M58.36 235.952C58.0912 237.235 58.1991 238.552 58.675 239.795C59.4846 241.076 43.4627 241.099 43.4627 241.099C42.6037 236.778 41.34 232.518 39.6825 228.354C37.2348 222.518 58.36 235.952 58.36 235.952Z" fill="#EEA886"/>
<path d="M39.7015 228.359C39.7015 228.359 40.8072 229.842 45.3214 229.268C49.8356 228.694 55.3422 223.809 57.226 223.271C59.1098 222.733 59.1161 221.836 59.1161 221.836L60.2974 223.238L62.2978 223.34C62.2978 223.34 60.4738 218.97 63.2428 217.192C66.0118 215.414 60.3856 203.05 45.9168 207.165C45.9168 207.165 34.7998 209.657 35.2062 214.799C35.6126 219.941 37.2128 225.797 39.7015 228.359Z" fill="#D88A51"/>
<path d="M59.6299 239.649C59.6299 239.649 59.5795 237.223 58.228 236.99C52.7357 236.347 47.1857 236.09 41.6392 236.221V239.039C41.6392 239.039 44.8397 240.653 59.6299 239.649Z" fill="#E2D2CA"/>
<path d="M58.8297 219.964C58.5746 219.1 55.8811 216.633 54.8479 219.275C53.8146 221.916 56.423 225.464 57.8531 225.167C59.2833 224.87 59.4724 222.149 58.8297 219.964Z" fill="#EEA886"/>
<path d="M82.0904 243.32C72.7816 242.321 59.6328 239.644 59.6328 239.644L41.6389 239.049C33.8252 240.401 26.1344 242.187 18.6206 244.393C17.9905 244.621 17.9905 256.375 16.3083 259.457L21.7015 268.708C21.7015 268.708 24.817 287.033 25.4628 295.185C25.7589 298.925 19.0395 330.267 19.0395 330.267C25.4307 331.626 31.9449 332.568 38.5203 333.085C50.806 334.184 81.4824 332.688 81.6777 331.507C81.873 330.326 75.7333 287.584 75.4656 285.37C75.0497 281.973 76.9052 263.92 76.9052 263.92C79.7404 262.127 104.627 252.735 111.425 247.837C113.243 246.525 120.913 240.451 123.096 238.358C128.387 233.534 133.335 228.47 137.918 223.189C138.794 222.408 129.529 218.321 128.688 218.083C127.954 217.883 117.514 228.884 113.495 232.43C110.546 234.555 107.462 236.552 104.255 238.414C104.255 238.414 87.9151 243.592 82.0904 243.32Z" fill="#323657"/>
<path d="M40.1615 209.163C40.1615 209.163 25.1884 210.116 39.7016 228.359L40.1615 209.163Z" fill="#D88A51"/>
<path d="M141.585 208.976L142.813 207.452L140.551 207.692L141.585 208.976Z" fill="#DFE1E8"/>
<path d="M155.168 28.0122H156.869C157.062 28.0117 157.254 28.0333 157.439 28.0763C157.619 28.1183 157.79 28.1821 157.946 28.2658C158.101 28.3492 158.24 28.4493 158.362 28.5631C158.483 28.676 158.581 28.804 158.652 28.9423C159.059 29.7501 159.471 30.5501 159.887 31.3426C160.303 32.135 160.723 32.9362 161.147 33.7457C161.218 33.8773 161.268 34.0159 161.295 34.1581C161.316 34.2844 161.331 34.3964 161.339 34.4938C161.358 34.3038 161.404 34.1163 161.478 33.9352C161.568 33.713 161.673 33.4949 161.793 33.2819L164.042 28.9268C164.105 28.7974 164.198 28.6791 164.316 28.5784C164.444 28.465 164.589 28.3651 164.747 28.2811C164.91 28.1943 165.086 28.1246 165.27 28.0737C165.449 28.0233 165.636 27.9974 165.825 27.9969H167.526L166.323 30.3256L167.664 32.9208C167.805 33.1906 167.943 33.4553 168.077 33.7149C168.202 33.9479 168.277 34.1966 168.298 34.4501C168.298 34.404 168.313 34.3502 168.323 34.2913C168.337 34.2145 168.356 34.1385 168.38 34.0633C168.415 33.9532 168.457 33.8446 168.506 33.7379C168.562 33.6115 168.64 33.457 168.739 33.2743L170.988 28.9191C171.05 28.7906 171.141 28.6725 171.256 28.5707C171.382 28.4566 171.526 28.3566 171.684 28.2735C171.847 28.1867 172.023 28.117 172.207 28.066C172.385 28.0156 172.573 27.9897 172.762 27.9892H174.463L169.794 37.0196H166.795L165.179 33.6893C165.122 33.5684 165.073 33.4453 165.031 33.3204C164.989 33.1944 164.967 33.0642 164.968 32.9336C164.967 32.808 164.993 32.6833 165.044 32.5647C164.909 32.8738 164.66 33.398 164.297 34.1376C163.934 34.8771 163.45 35.8395 162.845 37.0248H159.843L155.168 28.0122Z" fill="white"/>
<path d="M174.45 32.5237C174.446 31.9073 174.599 31.2968 174.897 30.7303C175.479 29.6157 176.57 28.7283 177.941 28.2556C178.641 28.0143 179.393 27.8898 180.154 27.8898C180.914 27.8898 181.666 28.0143 182.367 28.2556C183.737 28.7283 184.828 29.6157 185.41 30.7303C185.706 31.2997 185.859 31.9117 185.859 32.5301C185.859 33.1484 185.706 33.7605 185.41 34.3298C184.828 35.4442 183.737 36.3314 182.367 36.8046C181.666 37.0459 180.914 37.1702 180.154 37.1702C179.393 37.1702 178.641 37.0459 177.941 36.8046C176.57 36.3314 175.479 35.4442 174.897 34.3298C174.597 33.7594 174.444 33.1444 174.45 32.5237ZM177.197 32.5237C177.195 32.8426 177.274 33.1584 177.43 33.4511C177.576 33.7383 177.79 33.9994 178.06 34.2196C178.333 34.4371 178.653 34.611 179.005 34.732C179.366 34.8566 179.754 34.9207 180.146 34.9207C180.537 34.9207 180.925 34.8566 181.286 34.732C181.638 34.6111 181.958 34.4372 182.231 34.2196C182.501 33.9992 182.715 33.7382 182.861 33.4511C183.014 33.1568 183.093 32.8405 183.093 32.521C183.093 32.2015 183.014 31.8854 182.861 31.5911C182.559 31.0148 181.995 30.5558 181.286 30.3102C180.925 30.1856 180.537 30.1215 180.146 30.1215C179.754 30.1215 179.366 30.1856 179.005 30.3102C178.296 30.5555 177.732 31.0146 177.43 31.5911C177.272 31.8878 177.193 32.2081 177.197 32.5313V32.5237Z" fill="white"/>
<path d="M189.766 28.0097L189.892 28.1737C189.966 28.2758 190.01 28.3908 190.018 28.5093C190.018 28.5836 190.018 28.6552 190.034 28.7244C190.05 28.7936 190.034 28.8525 190.034 28.9038C190.189 28.7549 190.365 28.6208 190.557 28.5041C190.973 28.2495 191.449 28.0664 191.956 27.9661C192.215 27.9147 192.482 27.8889 192.75 27.8893C193.068 27.892 193.385 27.9238 193.695 27.984C194.038 28.0489 194.375 28.1346 194.703 28.2403C194.668 28.394 194.633 28.5503 194.602 28.7091C194.57 28.8679 194.536 29.0216 194.501 29.1779C194.471 29.3222 194.406 29.4605 194.312 29.5852C194.221 29.7015 194.105 29.8031 193.969 29.8849C193.828 29.9697 193.67 30.0339 193.502 30.0746C193.33 30.1173 193.15 30.1388 192.97 30.1386C192.946 30.1414 192.922 30.1414 192.898 30.1386C192.838 30.1353 192.778 30.1353 192.718 30.1386C192.449 30.1381 192.181 30.1656 191.921 30.2205C191.677 30.2712 191.441 30.3452 191.218 30.4408C191.02 30.5254 190.836 30.6304 190.67 30.7534C190.528 30.8575 190.409 30.9816 190.321 31.1197C190.233 31.3183 190.183 31.5265 190.173 31.7372V37.0376H187.404V28.0097H189.766Z" fill="white"/>
<path d="M198.817 37.035H196.048V24.9175H198.817V37.035ZM202.556 28.8884C202.635 28.7527 202.741 28.6289 202.871 28.522C203.151 28.3022 203.498 28.1467 203.876 28.0712C204.073 28.0315 204.275 28.0117 204.477 28.0122H206.368L203.217 32.0753C203.137 32.1642 203.036 32.2397 202.921 32.2982C202.858 32.3318 202.79 32.3602 202.72 32.3828C202.786 32.4073 202.852 32.4347 202.915 32.4647C203.038 32.518 203.146 32.5923 203.23 32.6825L206.654 37.0377H204.764C204.362 37.0442 203.963 36.9721 203.602 36.8275C203.26 36.6843 202.986 36.4539 202.82 36.1718L200.244 32.9208C200.181 32.8412 200.108 32.7673 200.026 32.7005C199.953 32.6401 199.874 32.5844 199.79 32.534C199.711 32.4878 199.648 32.4518 199.595 32.4262C199.566 32.4107 199.535 32.3979 199.503 32.3879C199.535 32.3797 199.566 32.3685 199.595 32.3546C199.66 32.3247 199.723 32.2913 199.784 32.2547C199.867 32.2047 199.946 32.1499 200.02 32.0907C200.107 32.0214 200.182 31.942 200.24 31.855L202.556 28.8884Z" fill="white"/>
</svg>
