<svg width="789" height="627" viewBox="0 0 789 627" fill="none" xmlns="http://www.w3.org/2000/svg">
<path opacity="0.8" d="M789 598.5C789 614.24 612.376 627 394.499 627C176.621 627 0 614.24 0 598.5C0 582.76 176.624 570 394.499 570C612.373 570 789 582.76 789 598.5Z" fill="#D9D9D9" fill-opacity="0.48"/>
<path d="M421 126.952C474.131 124.181 464.332 90.3367 449.224 88.1971C434.116 86.0574 429.927 101.655 439.68 105.465C455.575 111.677 510.26 83.1106 544.706 42.2709" stroke="#AD9BF6" stroke-width="4.38123" stroke-linecap="round" stroke-linejoin="round" stroke-dasharray="14.98 9.81"/>
<path d="M551.789 41.68L575.814 17.2419L549.557 25.1164L551.789 41.68Z" fill="#3B32EF"/>
<path d="M527.437 20.9289L575.034 34.2792L585.673 1.24589L527.437 20.9289Z" fill="#6752F2"/>
<path d="M544.133 25.4261L572.681 11.1622L554.332 28.1298L551.965 42.4769L544.133 25.4261Z" fill="#0015D3"/>
<path d="M392.161 518.582H445.244V387.458H392.161V518.582Z" fill="#AEBECC"/>
<path d="M202.113 450.621L635.295 450.621C642.254 450.621 647.895 446.033 647.895 440.374V154.248C647.895 148.588 642.254 144 635.295 144L202.113 144C195.154 144 189.513 148.588 189.513 154.248L189.513 440.374C189.513 446.033 195.154 450.621 202.113 450.621Z" fill="#F0F0F0"/>
<path d="M207.465 409.411L629.942 409.411V159.658L207.465 159.658L207.465 409.411Z" fill="white"/>
<path d="M207.081 190.313L629.558 190.313V160.147L207.081 160.147V190.313Z" fill="#000AFF"/>
<path d="M403.917 428.269C403.917 430.647 404.784 432.971 406.408 434.948C408.033 436.925 410.342 438.466 413.043 439.376C415.744 440.286 418.717 440.524 421.585 440.061C424.453 439.597 427.087 438.452 429.154 436.77C431.222 435.089 432.63 432.947 433.2 430.614C433.771 428.282 433.478 425.865 432.359 423.668C431.24 421.471 429.345 419.593 426.914 418.272C424.483 416.951 421.625 416.246 418.701 416.246C414.78 416.246 411.019 417.513 408.247 419.767C405.474 422.022 403.917 425.08 403.917 428.269Z" fill="#171359"/>
<path d="M338.393 220.218L475.88 220.218C478.916 220.218 481.377 218.217 481.377 215.749C481.377 213.28 478.916 211.28 475.88 211.28H338.393C335.357 211.28 332.896 213.28 332.896 215.749C332.896 218.217 335.357 220.218 338.393 220.218Z" fill="#DFE1E8"/>
<path d="M338.393 236.34L475.88 236.34C478.916 236.34 481.377 234.339 481.377 231.87C481.377 229.402 478.916 227.401 475.88 227.401H338.393C335.357 227.401 332.896 229.402 332.896 231.87C332.896 234.339 335.357 236.34 338.393 236.34Z" fill="#DFE1E8"/>
<path d="M475.88 252.461L338.39 252.461C336.933 252.461 335.536 251.991 334.505 251.153C333.475 250.315 332.896 249.178 332.896 247.993C332.896 247.407 333.038 246.825 333.313 246.283C333.589 245.741 333.994 245.248 334.504 244.833C335.014 244.417 335.62 244.088 336.287 243.863C336.954 243.639 337.668 243.523 338.39 243.523H475.88C477.337 243.523 478.735 243.994 479.766 244.831C480.796 245.669 481.376 246.806 481.377 247.991V247.991C481.377 249.177 480.798 250.314 479.767 251.152C478.736 251.99 477.338 252.461 475.88 252.461Z" fill="#DFE1E8"/>
<path d="M409.338 391.839H250.972C244.626 391.832 238.541 389.778 234.053 386.128C229.566 382.479 227.04 377.531 227.031 372.369V294.015C227.04 288.853 229.566 283.905 234.053 280.255C238.541 276.606 244.626 274.552 250.972 274.545H409.338C415.685 274.552 421.769 276.606 426.257 280.255C430.745 283.905 433.27 288.853 433.28 294.015V372.356C433.275 377.52 430.751 382.471 426.263 386.124C421.775 389.776 415.688 391.832 409.338 391.839ZM250.972 276.986C245.419 276.991 240.096 278.788 236.169 281.981C232.242 285.174 230.034 289.504 230.027 294.02V372.361C230.033 376.878 232.241 381.208 236.168 384.402C240.095 387.596 245.419 389.392 250.972 389.398H409.338C414.892 389.392 420.216 387.596 424.143 384.402C428.069 381.208 430.278 376.878 430.284 372.361V294.015C430.277 289.499 428.068 285.169 424.142 281.976C420.215 278.783 414.891 276.986 409.338 276.981L250.972 276.986Z" fill="#DFE1E8"/>
<path d="M395.805 304.07H264.506C261.433 304.07 258.487 303.077 256.315 301.311C254.143 299.544 252.922 297.148 252.922 294.65C252.922 292.152 254.143 289.756 256.315 287.989C258.487 286.223 261.433 285.23 264.506 285.23H395.805C398.877 285.23 401.823 286.223 403.996 287.989C406.168 289.756 407.388 292.152 407.388 294.65V294.65C407.388 297.148 406.168 299.544 403.996 301.311C401.823 303.077 398.877 304.07 395.805 304.07Z" fill="#DFE1E8"/>
<path d="M538.114 513.632H299.296V523.531H538.114V513.632Z" fill="#171359"/>
<path d="M582.427 300.286C582.428 306.16 580.154 311.885 575.929 316.648C571.703 321.412 565.74 324.972 558.886 326.824C558.678 326.881 558.473 326.937 558.256 326.988C551.341 328.738 543.923 328.668 537.06 326.787C530.197 324.906 524.24 321.311 520.038 316.514C515.836 311.717 513.604 305.964 513.66 300.074C513.716 294.185 516.058 288.46 520.351 283.717C524.644 278.974 530.669 275.454 537.567 273.66C544.465 271.866 551.883 271.889 558.764 273.726C565.645 275.563 571.637 279.12 575.885 283.89C580.133 288.66 582.42 294.399 582.421 300.289L582.427 300.286Z" fill="#EEF0F7"/>
<path d="M539.84 297.332C539.84 297.332 537.49 284.979 550.072 285.207C562.654 285.435 562.484 291.542 562.26 297.606C562.037 303.67 557.22 303.212 562.651 311.645C568.082 320.079 557.944 320.079 557.944 320.079L550.069 311.282L539.84 297.332Z" fill="#3C4145"/>
<path d="M548.696 286.393C548.696 286.393 540.19 287.487 539.841 297.332C539.491 307.178 542.137 309.276 549.606 307.224C557.075 305.172 559.416 294.87 559.583 293.274C559.75 291.678 560.188 285.207 548.696 286.393Z" fill="#EEA886"/>
<path d="M563.662 320.64C563.686 321.935 563.248 323.209 562.401 324.306C561.554 325.403 560.334 326.277 558.889 326.822C558.681 326.878 558.474 326.935 558.259 326.986C549.816 329.111 540.691 328.519 532.768 325.333C531.732 323.653 533.231 321.265 536.28 317.602C538.029 314.933 540.688 312.732 543.939 311.264C548.798 310.344 553.891 310.717 558.47 312.327C560.206 313.178 561.612 314.409 562.53 315.879C563.448 317.348 563.84 318.998 563.662 320.64Z" fill="#FE6B03"/>
<path d="M537.957 317.453L534.038 322.474C534.038 322.446 534.306 321.688 534.75 319.485C534.835 319.067 534.926 318.598 535.021 318.071C535.05 317.914 535.091 317.759 535.144 317.607C536.831 315.256 539.286 313.331 542.238 312.048L537.957 317.453Z" fill="#E55353"/>
<path d="M565.404 324.424C563.34 325.406 561.156 326.21 558.886 326.822C558.681 326.878 558.473 326.935 558.256 326.986C557.386 325.162 556.634 323.584 556.47 323.176C556.423 323.056 556.312 322.836 556.155 322.536C554.908 320.353 554.128 318.014 553.846 315.619C553.846 314.054 554.476 312.767 556.407 312.404C557.08 312.268 557.78 312.247 558.464 312.34C559.437 312.565 560.326 312.985 561.047 313.562C561.769 314.139 562.301 314.854 562.594 315.642L562.628 315.711C562.983 316.431 563.242 317.18 563.4 317.945L563.498 318.252C563.621 318.642 563.854 319.385 564.156 320.356C564.509 321.465 564.941 322.882 565.404 324.424Z" fill="#EEA886"/>
<path d="M554.375 302.792C553.609 305.479 553.101 308.212 552.857 310.964C552.857 310.964 542.436 314.166 543.504 312.355C543.952 311.461 544.167 310.502 544.134 309.537C544.14 308.965 544.101 308.394 544.018 307.826C543.989 307.641 543.967 307.534 543.967 307.534C543.967 307.534 555.125 301.657 554.375 302.792Z" fill="#EEA886"/>
<path d="M545.221 293.459C547.476 296.482 550.293 299.203 553.572 301.526C557.551 303.804 555.535 305.625 555.535 305.625C555.535 305.625 565.93 287.848 556.048 286.616C546.166 285.384 540.124 285.294 539.844 297.327C539.84 297.332 544.329 293.369 545.221 293.459Z" fill="#3C4145"/>
<path d="M549.962 307.113C548.416 308.439 546.362 309.298 544.137 309.55C544.143 308.978 544.104 308.406 544.021 307.838C546.045 308.014 548.09 307.764 549.962 307.113Z" fill="#A77860"/>
<path d="M535.162 317.571C534.919 318.191 534.78 318.834 534.75 319.485L536.287 317.602C536.287 317.602 539.028 314.407 539.966 313.574C540.664 312.991 541.435 312.468 542.266 312.014C539.224 313.196 536.732 315.145 535.162 317.571Z" fill="#BD4444"/>
<path d="M555.9 322.336C558.712 321.403 561.61 320.648 564.566 320.079C564.566 320.079 563.221 311.346 556.653 312.27C550.085 313.195 555.9 322.336 555.9 322.336Z" fill="#E55353"/>
<path d="M543.945 311.266C543.945 311.266 539.037 317.415 540.698 317.942C543.618 318.033 546.514 317.47 549.069 316.316C551.624 315.161 553.74 313.459 555.188 311.394C553.436 310.716 551.524 310.354 549.584 310.332C547.644 310.309 545.72 310.628 543.945 311.266Z" fill="#EEA886"/>
<path d="M595.126 218.724C595.126 225.919 592.503 232.953 587.587 238.935C582.672 244.917 575.686 249.58 567.512 252.333C559.338 255.087 550.344 255.807 541.667 254.404C532.989 253 525.019 249.535 518.763 244.448C512.507 239.36 508.246 232.878 506.52 225.821C504.794 218.765 505.68 211.45 509.066 204.803C512.452 198.156 518.185 192.474 525.541 188.477C532.898 184.479 541.546 182.346 550.393 182.346C562.257 182.346 573.635 186.179 582.024 193.001C590.413 199.823 595.126 209.076 595.126 218.724Z" fill="#EEF0F7"/>
<path d="M579.533 238.796L576.235 248.421C570.212 251.896 563.221 254.097 555.891 254.826C554.568 254.959 553.223 255.041 551.868 255.082C551.38 255.095 550.888 255.1 550.4 255.1C548.953 255.1 547.523 255.045 546.109 254.936C537.765 254.288 529.815 251.741 523.17 247.586C522.54 244.402 521.859 240.879 521.261 237.595C524.55 236.598 535.011 233.706 541.617 231.89L541.891 231.815L542.323 231.698L543.441 231.39L544.468 231.106L547.114 230.383L547.25 230.345H547.325L556.206 230.885L557.696 230.975L558.159 231.003L558.364 231.044C558.896 231.154 560.455 231.487 562.512 232C567.786 233.304 576.329 235.789 579.533 238.796Z" fill="#D9C7C1"/>
<path d="M552.725 200.663C552.725 200.663 563.376 202.126 561.568 215.683C559.759 229.241 550.347 228.044 549.732 228.019C549.118 227.993 540.282 228.183 539.812 211.605C539.812 211.623 539.677 199.354 552.725 200.663Z" fill="#EEA987"/>
<path d="M557.393 224.094C557.182 226.36 557.276 228.638 557.674 230.888C558.32 232.102 549.124 235.945 543.407 231.567C543.964 228.84 544.231 226.079 544.204 223.315C543.845 221.163 557.393 224.094 557.393 224.094Z" fill="#EEA987"/>
<path d="M561.794 211.848C561.794 211.848 562.975 210.844 563.391 211.874C563.807 212.904 561.501 217.474 561.646 217.682C561.646 217.682 561.429 218.079 561.148 217.856C561.213 215.844 561.429 213.838 561.794 211.848Z" fill="#EEA987"/>
<path d="M539.935 211.484C539.935 211.484 538.804 210.442 538.338 211.459C538.4 213.466 538.89 215.449 539.784 217.32C539.784 217.32 540.152 217.789 540.439 217.577C540.424 215.539 540.256 213.505 539.935 211.484Z" fill="#EEA987"/>
<path d="M562.478 210.688C562.112 212.543 561.763 213.923 561.763 213.923L560.213 215.568C560.274 214.163 560.226 212.756 560.068 211.356C559.98 211.141 559.873 210.757 559.753 210.332C559.573 209.648 559.394 208.871 559.268 208.615C553.72 206.957 547.597 207.116 542.191 209.058C542.191 209.058 542.257 209.619 542.254 210.245C542.254 210.97 542.15 211.782 541.743 211.907C540.981 212.135 541.299 216.168 541.299 216.168L540.061 215.004C540.061 215.004 539.702 212.899 539.349 210.475V210.457C539.27 209.894 539.188 209.312 539.11 208.736C538.845 207.014 539.069 205.267 539.766 203.627C540.463 201.988 541.614 200.5 543.129 199.28C547.59 197.898 552.523 197.915 556.968 199.328C557.686 199.349 558.388 199.5 559.025 199.769C563.379 203.689 562.478 210.688 562.478 210.688Z" fill="#FE6B03"/>
<path d="M544.931 226.213C545.631 226.857 546.506 227.359 547.486 227.68C548.467 228.001 549.526 228.131 550.58 228.06C551.621 228.096 552.661 227.96 553.635 227.66C554.61 227.359 555.5 226.901 556.25 226.312C555.725 227.194 554.925 227.948 553.931 228.5C552.936 229.052 551.78 229.383 550.58 229.458C549.372 229.364 548.216 229.015 547.226 228.445C546.235 227.876 545.444 227.106 544.931 226.213Z" fill="#C78D71"/>
<path d="M542.329 231.687C543.221 232.875 544.425 233.887 545.855 234.651C547.284 235.416 548.904 235.913 550.598 236.109C554.032 236.35 557.006 232.809 558.401 231.07C555.806 230.299 553.048 229.957 550.289 230.063C547.529 230.169 544.823 230.721 542.329 231.687Z" fill="#EEA987"/>
<path d="M557.403 229.799C555.447 231.674 553.149 233.293 550.589 234.6L553.471 238.215L558.389 231.075L557.403 229.799Z" fill="#EDDAD3"/>
<path d="M543.621 230.335C545.524 232.163 547.905 233.622 550.589 234.608L547.423 238.33L541.892 231.818L543.621 230.335Z" fill="#EDDAD3"/>
<path d="M550.589 234.595L553.062 237.654C552.288 237.989 551.422 238.158 550.545 238.144C549.669 238.131 548.811 237.936 548.053 237.577L550.589 234.595Z" fill="#5073AB"/>
<path d="M582.39 238.228C581.965 239.47 581.328 241.279 579.649 246.246C579.136 246.607 578.613 246.961 578.074 247.299C577.473 247.686 576.858 248.068 576.231 248.421C570.209 251.896 563.217 254.097 555.887 254.826C556.549 242.234 558.389 231.067 558.389 231.067C559.84 231.376 561.215 231.684 562.515 231.99C569.112 233.379 575.504 235.343 581.584 237.846L581.628 237.866C582.151 238.102 582.39 238.228 582.39 238.228Z" fill="#323657"/>
<path d="M541.454 254.37C532.804 252.933 524.871 249.447 518.653 244.351C518.379 244.125 518.108 243.897 517.84 243.667C517.055 240.964 516.536 239.199 516.501 239.083C516.501 239.083 522.033 236.127 541.614 231.877C541.614 232.246 541.624 242.452 541.454 254.37Z" fill="#323657"/>
<path d="M552.004 237.989C551.821 241.307 551.802 247.74 551.865 255.082C551.377 255.095 550.885 255.1 550.397 255.1C548.95 255.1 547.52 255.045 546.107 254.936C546.562 249.23 547.555 243.561 549.077 237.979C549.295 237.246 549.427 236.88 549.427 236.88L552.054 237.231C552.032 237.464 552.016 237.715 552.004 237.989Z" fill="#5073AB"/>
<path d="M584.642 242.114C583.112 243.592 581.44 244.97 579.643 246.233C579.129 246.595 578.607 246.948 578.068 247.286L582.38 238.212C583.41 239.395 584.176 240.715 584.642 242.114Z" fill="#323657"/>
<path d="M518.653 244.353C518.379 244.128 518.108 243.9 517.84 243.669C516.84 242.807 515.894 241.905 515.005 240.966C515.286 240.238 515.805 239.585 516.507 239.078L518.653 244.353Z" fill="#323657"/>
<path d="M548.496 394.868C567.481 394.667 582.671 381.988 582.424 366.549C582.177 351.11 566.587 338.757 547.603 338.958C528.618 339.158 513.428 351.837 513.675 367.276C513.921 382.715 529.512 395.068 548.496 394.868Z" fill="#EEF0F7"/>
<path d="M548.053 378.051C547.593 378.051 547.153 377.903 546.828 377.639C546.503 377.374 546.32 377.016 546.32 376.642V357.172C546.32 356.798 546.503 356.44 546.828 356.176C547.153 355.912 547.593 355.763 548.053 355.763C548.512 355.763 548.953 355.912 549.278 356.176C549.603 356.44 549.785 356.798 549.785 357.172V376.642C549.786 376.827 549.741 377.011 549.654 377.182C549.567 377.353 549.44 377.508 549.279 377.639C549.118 377.77 548.927 377.874 548.716 377.945C548.506 378.015 548.28 378.052 548.053 378.051Z" fill="#949494"/>
<path d="M560.027 368.316H536.086C535.626 368.316 535.185 368.168 534.861 367.904C534.536 367.639 534.353 367.281 534.353 366.907C534.353 366.533 534.536 366.175 534.861 365.911C535.185 365.647 535.626 365.498 536.086 365.498H560.027C560.487 365.498 560.927 365.647 561.252 365.911C561.577 366.175 561.76 366.533 561.76 366.907C561.76 367.281 561.577 367.639 561.252 367.904C560.927 368.168 560.487 368.316 560.027 368.316Z" fill="#949494"/>
<path d="M463.039 275.767H467.471C469.297 275.767 471.105 276.059 472.791 276.627C474.478 277.195 476.011 278.028 477.302 279.078C478.592 280.128 479.616 281.374 480.315 282.746C481.014 284.117 481.373 285.587 481.373 287.072V290.679C481.373 292.164 481.014 293.634 480.315 295.006C479.616 296.377 478.592 297.624 477.302 298.673C476.011 299.723 474.478 300.556 472.791 301.124C471.105 301.692 469.297 301.985 467.471 301.985H463.039C459.352 301.985 455.816 300.794 453.208 298.673C450.6 296.553 449.135 293.678 449.134 290.679V287.075C449.134 284.076 450.599 281.199 453.207 279.079C455.815 276.958 459.351 275.767 463.039 275.767V275.767Z" fill="#43A046"/>
<path d="M464.233 294.65L456.084 288.87C455.915 288.76 455.775 288.623 455.673 288.468C455.571 288.313 455.509 288.143 455.49 287.967C455.471 287.792 455.496 287.615 455.563 287.448C455.63 287.281 455.737 287.126 455.88 286.993C456.022 286.861 456.196 286.753 456.39 286.676C456.585 286.599 456.797 286.556 457.013 286.547C457.229 286.539 457.445 286.566 457.648 286.627C457.851 286.688 458.037 286.782 458.194 286.903L463.956 290.989L472.175 283.534C472.314 283.402 472.484 283.294 472.676 283.216C472.867 283.138 473.076 283.092 473.29 283.08C473.503 283.069 473.718 283.092 473.92 283.149C474.122 283.206 474.309 283.295 474.468 283.411C474.627 283.528 474.757 283.669 474.848 283.826C474.939 283.984 474.991 284.154 475 284.328C475.009 284.502 474.976 284.676 474.901 284.839C474.826 285.002 474.712 285.152 474.566 285.279L464.233 294.65Z" fill="#F3F3F3"/>
<path d="M463.039 309.365H467.471C469.297 309.365 471.105 309.658 472.791 310.226C474.478 310.794 476.011 311.627 477.302 312.677C478.592 313.726 479.616 314.973 480.315 316.344C481.014 317.716 481.373 319.186 481.373 320.671V324.278C481.373 327.277 479.908 330.153 477.301 332.274C474.693 334.395 471.156 335.586 467.468 335.586H463.039C459.351 335.586 455.815 334.395 453.207 332.274C450.599 330.153 449.134 327.277 449.134 324.278V320.673C449.134 317.674 450.599 314.798 453.207 312.677C455.815 310.557 459.351 309.365 463.039 309.365V309.365Z" fill="#FE6B03"/>
<path d="M464.233 328.251L456.084 322.472C455.915 322.361 455.775 322.225 455.673 322.069C455.571 321.914 455.509 321.744 455.49 321.569C455.471 321.393 455.496 321.217 455.563 321.049C455.63 320.882 455.737 320.727 455.88 320.595C456.022 320.462 456.196 320.354 456.39 320.277C456.585 320.201 456.797 320.157 457.013 320.149C457.229 320.14 457.445 320.167 457.648 320.228C457.851 320.29 458.037 320.383 458.194 320.504L463.956 324.59L472.175 317.135C472.314 317.003 472.484 316.895 472.676 316.817C472.867 316.739 473.076 316.693 473.29 316.682C473.503 316.67 473.718 316.694 473.92 316.75C474.122 316.807 474.309 316.896 474.468 317.013C474.627 317.129 474.757 317.27 474.848 317.428C474.939 317.585 474.991 317.756 475 317.93C475.009 318.104 474.976 318.277 474.901 318.441C474.826 318.604 474.712 318.753 474.566 318.88L464.233 328.251Z" fill="#F3F3F3"/>
<path d="M463.039 342.964H467.471C469.297 342.964 471.105 343.256 472.791 343.825C474.478 344.393 476.011 345.226 477.302 346.275C478.592 347.325 479.616 348.571 480.315 349.943C481.014 351.315 481.373 352.785 481.373 354.27V357.877C481.373 360.876 479.908 363.752 477.301 365.873C474.693 367.993 471.156 369.185 467.468 369.185H463.039C461.213 369.185 459.405 368.892 457.717 368.324C456.03 367.755 454.497 366.922 453.206 365.872C451.915 364.821 450.89 363.574 450.192 362.202C449.493 360.83 449.134 359.359 449.134 357.874V354.272C449.134 351.273 450.599 348.397 453.207 346.276C455.815 344.155 459.351 342.964 463.039 342.964V342.964Z" fill="#00CBFE"/>
<path d="M256.441 382.396H251.539V563.563H256.441V382.396Z" fill="#706865"/>
<path d="M265.441 306.711H129.379C122.42 306.711 116.778 311.299 116.778 316.959V523.416C116.778 529.076 122.42 533.664 129.379 533.664H265.441C272.401 533.664 278.042 529.076 278.042 523.416V316.959C278.042 311.299 272.401 306.711 265.441 306.711Z" fill="#2242CD"/>
<path d="M261.015 310.367H133.804C126.845 310.367 121.204 314.955 121.204 320.614V514.547C121.204 520.206 126.845 524.794 133.804 524.794H261.015C267.974 524.794 273.616 520.206 273.616 514.547V320.614C273.616 314.955 267.974 310.367 261.015 310.367Z" fill="white"/>
<path d="M221.439 304.99H173.383V313.815H221.439V304.99Z" fill="#FE6B03"/>
<path d="M244.275 516.222H146.72C142.92 516.219 139.278 514.99 136.591 512.806C133.904 510.621 132.392 507.659 132.387 504.569V459.403C132.391 456.313 133.902 453.35 136.589 451.164C139.277 448.979 142.92 447.75 146.72 447.747H244.275C248.075 447.75 251.718 448.979 254.406 451.164C257.093 453.35 258.604 456.313 258.608 459.403V504.569C258.603 507.659 257.091 510.621 254.404 512.806C251.717 514.99 248.075 516.219 244.275 516.222ZM146.717 449.248C143.406 449.251 140.232 450.321 137.891 452.225C135.55 454.129 134.233 456.711 134.23 459.403V504.569C134.234 507.261 135.551 509.841 137.892 511.745C140.233 513.648 143.407 514.719 146.717 514.721H244.275C247.585 514.719 250.759 513.648 253.1 511.745C255.441 509.841 256.758 507.261 256.762 504.569V459.403C256.759 456.711 255.442 454.129 253.101 452.225C250.76 450.321 247.586 449.251 244.275 449.248H146.717Z" fill="#B5DEFF"/>
<path d="M156.744 406.977H156.722C156.816 407.011 156.829 407.013 156.744 406.977Z" fill="#323657"/>
<path d="M241.468 402.102C238.324 402.102 235.25 401.344 232.635 399.923C230.021 398.502 227.983 396.483 226.78 394.12C225.576 391.758 225.261 389.158 225.875 386.65C226.488 384.142 228.003 381.838 230.226 380.03C232.45 378.221 235.283 376.99 238.367 376.491C241.451 375.992 244.647 376.248 247.553 377.227C250.458 378.205 252.941 379.863 254.688 381.989C256.435 384.115 257.367 386.615 257.367 389.172C257.362 392.6 255.686 395.887 252.705 398.31C249.725 400.734 245.683 402.098 241.468 402.102ZM241.468 377.744C238.689 377.743 235.971 378.413 233.66 379.669C231.349 380.924 229.547 382.709 228.483 384.797C227.419 386.885 227.14 389.183 227.682 391.4C228.224 393.617 229.562 395.654 231.527 397.252C233.492 398.851 235.996 399.94 238.722 400.381C241.449 400.822 244.274 400.596 246.842 399.731C249.41 398.866 251.605 397.401 253.15 395.522C254.694 393.642 255.518 391.433 255.518 389.172C255.514 386.143 254.032 383.239 251.398 381.097C248.765 378.955 245.193 377.75 241.468 377.746V377.744Z" fill="#B5DEFF"/>
<path d="M241.468 431.894C238.324 431.894 235.25 431.136 232.635 429.715C230.021 428.294 227.983 426.275 226.78 423.912C225.576 421.55 225.261 418.95 225.875 416.442C226.488 413.934 228.003 411.63 230.226 409.821C232.45 408.013 235.283 406.782 238.367 406.283C241.451 405.784 244.647 406.04 247.553 407.019C250.458 407.997 252.941 409.655 254.688 411.781C256.435 413.907 257.367 416.407 257.367 418.964C257.362 422.392 255.686 425.678 252.705 428.102C249.725 430.526 245.683 431.89 241.468 431.894ZM241.468 407.538C238.69 407.538 235.973 408.208 233.663 409.464C231.352 410.719 229.551 412.504 228.488 414.592C227.425 416.679 227.146 418.977 227.688 421.193C228.231 423.41 229.569 425.446 231.534 427.043C233.499 428.641 236.002 429.73 238.727 430.17C241.453 430.611 244.278 430.385 246.845 429.52C249.412 428.655 251.607 427.191 253.15 425.312C254.694 423.433 255.518 421.224 255.518 418.964C255.514 415.935 254.032 413.031 251.398 410.889C248.765 408.747 245.193 407.542 241.468 407.538Z" fill="#B5DEFF"/>
<path d="M169.814 389.746C168.504 389.746 167.175 389.695 165.867 389.592C156.303 388.846 147.36 385.402 140.59 379.857C140.322 379.64 140.07 379.424 139.837 379.225C138.927 378.441 138.045 377.603 137.226 376.74C131.627 370.887 128.602 363.678 128.632 356.263C128.644 347.382 132.987 338.869 140.708 332.59C148.429 326.31 158.898 322.778 169.818 322.769V324.273C159.388 324.282 149.389 327.655 142.015 333.652C134.64 339.649 130.492 347.781 130.481 356.263C130.452 363.345 133.342 370.231 138.691 375.82C139.474 376.645 140.307 377.438 141.189 378.195C141.409 378.389 141.652 378.592 141.904 378.799C148.363 384.105 156.907 387.398 166.047 388.104C167.307 388.199 168.567 388.25 169.827 388.25C170.284 388.25 170.706 388.25 171.119 388.235C172.312 388.201 173.503 388.13 174.659 388.012C181.104 387.364 187.25 385.428 192.549 382.376C193.107 382.053 193.652 381.72 194.168 381.387C194.619 381.1 195.082 380.79 195.551 380.459C197.136 379.348 198.611 378.137 199.962 376.837C205.913 371.071 209.176 363.785 209.179 356.258C209.179 354.687 209.039 353.118 208.76 351.564L210.587 351.346C210.88 352.974 211.027 354.616 211.028 356.26C211.025 364.141 207.607 371.769 201.376 377.805C199.967 379.166 198.428 380.435 196.774 381.599C196.285 381.943 195.794 382.271 195.328 382.568C194.789 382.914 194.219 383.262 193.636 383.593C188.086 386.785 181.649 388.809 174.902 389.485C173.692 389.608 172.445 389.685 171.197 389.718C170.734 389.739 170.29 389.746 169.814 389.746Z" fill="#B5DEFF"/>
<path d="M198.544 373.988C198.423 373.858 198.288 373.736 198.141 373.624C198.083 373.567 198.011 373.52 197.93 373.486L197.892 373.468C190.992 370.797 183.778 368.697 176.36 367.202C175.996 365.581 175.89 363.929 176.045 362.286C177.926 360.315 179.123 357.971 179.511 355.497C179.744 355.638 179.92 355.315 179.92 355.315C179.791 355.13 181.864 351.016 181.495 350.089C181.482 350.002 181.44 349.92 181.374 349.851C181.308 349.782 181.221 349.729 181.121 349.697C181.021 349.665 180.912 349.656 180.806 349.67C180.701 349.684 180.601 349.72 180.519 349.776C180.569 349.54 180.621 349.291 180.673 349.028C180.673 349.028 181.495 342.723 177.57 339.208C176.996 338.966 176.364 338.832 175.718 338.814C171.717 337.54 167.276 337.524 163.262 338.77C161.898 339.869 160.862 341.208 160.235 342.683C159.608 344.159 159.407 345.732 159.646 347.281C159.715 347.793 159.791 348.323 159.86 348.818V348.833C159.888 349.033 159.917 349.23 159.948 349.425C159.869 349.366 159.771 349.325 159.666 349.307C159.56 349.289 159.451 349.294 159.349 349.323C159.247 349.351 159.157 349.401 159.087 349.468C159.017 349.535 158.971 349.615 158.953 349.702C159.01 351.508 159.451 353.293 160.257 354.977C160.257 354.977 160.572 355.399 160.846 355.207C161.193 357.806 162.367 360.287 164.251 362.406C164.113 364.43 163.668 366.964 163.546 367.632C160.326 368.457 144.185 371.952 139.289 374.549C138.657 375.005 138.19 375.592 137.938 376.248C138.738 377.094 139.591 377.906 140.493 378.681C140.732 378.889 140.978 379.097 141.223 379.299C147.835 384.728 156.58 388.099 165.933 388.824C167.193 388.921 168.491 388.973 169.795 388.973C170.24 388.973 170.678 388.973 171.115 388.955C172.338 388.924 173.545 388.848 174.738 388.727C181.336 388.071 187.629 386.09 193.05 382.962C193.614 382.634 194.165 382.299 194.707 381.95C195.186 381.646 195.652 381.328 196.118 381.003C197.736 379.864 199.24 378.624 200.617 377.293C200.086 376.13 199.39 375.021 198.544 373.988Z" fill="#118FDB"/>
<path d="M596.885 473.883H644.588V471.582H596.885V473.883Z" fill="#E2D2CA"/>
<path d="M638.196 479.877H634.016V584.609H638.196V479.877Z" fill="#706865"/>
<path d="M571.192 474.216H604.351V470.926H571.192V474.216Z" fill="#CCBDB7"/>
<path d="M581.492 473.883H594.049V442.869H581.492V473.883Z" fill="#4667A8"/>
<path d="M477.981 479.875H661.7V473.921H477.981V479.875Z" fill="#B59074"/>
<path d="M696.959 437.881C696.959 437.881 698.969 460.797 693.463 463.54C689.997 465.257 676.26 471.052 676.669 472.141C677.079 473.229 684.434 481.809 684.434 481.809C684.434 481.809 710.848 467.663 711.702 463.205C712.534 458.85 710.404 429.645 706.772 428.307C704.05 427.298 702.617 428.133 699.19 430.203C697.838 431.109 696.888 432.35 696.485 433.737C696.083 435.123 696.249 436.579 696.959 437.881Z" fill="#323657"/>
<path d="M648.819 444.424L646.488 443.722C646.488 443.722 649.392 438.178 650.659 438.314C651.764 438.449 652.86 438.632 653.941 438.862L648.819 444.424Z" fill="#EAD8CF"/>
<path d="M648.286 445.377C648.582 445.198 653.235 437.948 653.235 437.948L663.174 439.047L657.818 447.642L648.286 445.377Z" fill="#DA9B5B"/>
<path d="M664.459 570.308C664.459 570.308 665.282 574.945 665.386 575.642C665.49 576.339 674.521 575.232 674.521 575.232L675.252 569.712C671.639 569.614 668.023 569.814 664.459 570.308Z" fill="#424773"/>
<path d="M665.287 575.05C663.675 576.615 661.775 577.968 659.655 579.062C656.886 580.282 652.536 580.761 650.897 582.024C649.716 582.933 646.594 586.853 658.092 586.771C669.591 586.689 675.135 587.324 676.364 585.823C677.592 584.322 674.581 574.738 674.581 574.738C671.536 575.327 668.381 575.433 665.287 575.05Z" fill="#292C47"/>
<path d="M606.575 570.352C606.575 570.352 607.394 574.989 607.501 575.686C607.608 576.383 616.636 575.276 616.636 575.276L617.367 569.758C613.754 569.659 610.138 569.858 606.575 570.352Z" fill="#424773"/>
<path d="M607.4 575.097C605.787 576.661 603.888 578.013 601.767 579.106C598.998 580.325 588.811 581.324 587.173 582.585C585.991 583.494 584.022 587.158 600.205 586.815C611.7 586.571 617.247 587.368 618.476 585.867C619.705 584.365 616.693 574.779 616.693 574.779C613.658 575.42 610.49 575.528 607.4 575.097Z" fill="#292C47"/>
<path d="M693.601 490.214C693.601 490.214 660.751 494.736 653.332 495.684C645.914 496.632 605.686 504.771 600.655 507.251C596.651 509.226 602.756 556.649 604.18 574.74H620.026L621.175 520.467C640.19 520.854 653.755 516.85 667.603 518.561C681.451 520.273 692.99 522.701 701.789 513.105C701.789 513.105 702.116 492.313 693.601 490.214Z" fill="#292C47"/>
<path d="M661.227 574.781L676.663 574.013L678.169 520.47C684.063 520.617 689.961 520.313 695.785 519.561L708.253 495.991C697.325 497.767 662.32 504.958 657.652 507.248C653.648 509.226 659.8 556.69 661.227 574.781Z" fill="#292C47"/>
<path d="M678.484 390.079C678.484 390.079 666.441 387.374 661.848 394.975C657.255 402.576 659.328 416.989 665.404 418.344C671.481 419.699 680.21 418.139 682.73 413.407C685.481 408.445 686.823 403.043 686.659 397.601C686.289 395.853 685.329 394.224 683.885 392.896C682.441 391.567 680.571 390.592 678.484 390.079Z" fill="#EEA886"/>
<path d="M668.56 416.83C668.683 419.181 668.464 421.535 667.908 423.844C667.124 425.077 684.677 424.767 684.677 424.767C683.095 420.608 682.686 416.213 683.48 411.909C685.023 406.055 668.56 416.83 668.56 416.83Z" fill="#EEA886"/>
<path d="M684.412 409.721C684.412 409.721 683.467 411.273 678.931 411.022C674.395 410.771 668.394 406.314 666.469 405.917C664.544 405.52 664.425 404.636 664.425 404.636L663.404 406.111L661.429 406.367C661.429 406.367 662.771 401.9 659.854 400.327C656.937 398.754 661.17 386.085 675.982 389.142C675.982 389.142 687.289 390.825 687.44 395.961C687.591 401.098 686.608 406.99 684.412 409.721Z" fill="#3A3F47"/>
<path d="M666.992 423.696C666.992 423.696 667.042 421.342 668.353 421.116C673.437 420.37 678.594 419.999 683.76 420.009L684.45 423.12C684.45 423.12 681.332 424.669 666.992 423.696Z" fill="#E2D2CA"/>
<path d="M663.363 403.57C663.7 401.641 666.4 399.422 667.943 402.43C669.487 405.438 666.901 409.816 665.168 409.58C663.435 409.344 662.906 406.191 663.363 403.57Z" fill="#EEA886"/>
<path d="M614.69 451.52C614.693 451.519 614.696 451.518 614.699 451.518C614.702 451.518 614.706 451.519 614.709 451.52C614.62 451.551 614.605 451.554 614.69 451.52Z" fill="#323657"/>
<path d="M681.993 391.45C681.993 391.45 696.673 390.889 684.557 409.526L681.993 391.45Z" fill="#3A3F47"/>
<path d="M714.705 581.132L713.612 583.633L667.465 572.004L669.67 566.945L714.705 581.132Z" fill="#918783"/>
<path d="M665.883 570.224H671.128V529.421H665.883V570.224Z" fill="#918783"/>
<path d="M653.037 529.657H683.972V527.254H653.037V529.657Z" fill="#5E5854"/>
<path d="M621.901 581.132L622.994 583.633L669.141 572.004L667.112 566.625L621.901 581.132Z" fill="#918783"/>
<path d="M654.413 583.364V586.269L669.14 572.002L667.112 566.622L654.413 583.364Z" fill="#918783"/>
<path d="M617.587 584.609C617.587 585.302 617.84 585.981 618.314 586.557C618.788 587.134 619.462 587.584 620.25 587.849C621.038 588.114 621.905 588.184 622.741 588.049C623.578 587.913 624.346 587.579 624.949 587.089C625.553 586.598 625.963 585.973 626.13 585.293C626.296 584.613 626.211 583.908 625.884 583.267C625.558 582.626 625.005 582.078 624.296 581.693C623.587 581.307 622.753 581.102 621.9 581.102C621.334 581.102 620.773 581.192 620.25 581.369C619.726 581.545 619.251 581.803 618.851 582.129C618.45 582.454 618.132 582.841 617.916 583.267C617.699 583.692 617.587 584.148 617.587 584.609Z" fill="#BFB2AC"/>
<path d="M654.048 584.609C654.048 585.302 654.301 585.981 654.775 586.557C655.249 587.134 655.922 587.584 656.71 587.849C657.498 588.114 658.365 588.184 659.202 588.049C660.038 587.913 660.807 587.579 661.41 587.089C662.013 586.598 662.424 585.973 662.59 585.293C662.757 584.613 662.671 583.908 662.345 583.267C662.018 582.626 661.466 582.078 660.756 581.693C660.047 581.307 659.213 581.102 658.36 581.102C657.217 581.102 656.12 581.471 655.311 582.129C654.502 582.787 654.048 583.679 654.048 584.609Z" fill="#BFB2AC"/>
<path d="M710.392 584.609C710.392 585.302 710.645 585.981 711.119 586.557C711.593 587.134 712.266 587.584 713.054 587.849C713.842 588.114 714.71 588.184 715.546 588.049C716.383 587.913 717.151 587.579 717.754 587.089C718.357 586.598 718.768 585.973 718.934 585.293C719.101 584.613 719.015 583.908 718.689 583.267C718.363 582.626 717.81 582.078 717.101 581.693C716.391 581.307 715.558 581.102 714.705 581.102C713.561 581.102 712.465 581.472 711.656 582.13C710.847 582.787 710.393 583.679 710.392 584.609Z" fill="#BFB2AC"/>
<path d="M699.348 527.254H637.258C635.772 527.254 634.348 526.774 633.297 525.92C632.247 525.065 631.657 523.907 631.657 522.699C631.657 521.491 632.247 520.334 633.296 519.48C634.346 518.626 635.77 518.146 637.255 518.146H699.348C700.833 518.146 702.257 518.626 703.307 519.48C704.358 520.333 704.948 521.491 704.949 522.699V522.699C704.949 523.907 704.359 525.065 703.308 525.92C702.258 526.774 700.833 527.254 699.348 527.254V527.254Z" fill="#E2D2CA"/>
<path d="M501.488 584.609H505.668V479.877H501.488V584.609Z" fill="#706865"/>
<path d="M630.62 457.807H544.935C541.922 457.807 539.031 456.833 536.9 455.101C534.77 453.368 533.572 451.017 533.572 448.566V404.846C533.572 402.395 534.77 400.045 536.9 398.312C539.031 396.579 541.922 395.605 544.935 395.605H630.617C633.631 395.605 636.522 396.579 638.654 398.312C640.785 400.046 641.983 402.397 641.983 404.848V448.566C641.983 451.017 640.786 453.368 638.655 455.101C636.524 456.833 633.634 457.807 630.62 457.807V457.807Z" fill="#171359"/>
<path d="M537.803 448.062H637.736V398.969H537.803V448.062Z" fill="#F5F7FF"/>
<path d="M537.803 402.876H637.736V398.969H537.803V402.876Z" fill="#CECFD6"/>
<path d="M547.521 445.039H547.524C550.851 445.039 553.547 442.846 553.547 440.14V410.712C553.547 408.007 550.851 405.814 547.524 405.814H547.521C544.195 405.814 541.498 408.007 541.498 410.712V440.14C541.498 442.846 544.195 445.039 547.521 445.039Z" fill="#CECFD6"/>
<path d="M632.677 409.447H615.165C614.573 409.447 614.005 409.255 613.586 408.915C613.167 408.574 612.932 408.112 612.932 407.63C612.932 407.149 613.167 406.687 613.586 406.346C614.005 406.006 614.573 405.814 615.165 405.814H632.677C633.27 405.814 633.838 406.006 634.257 406.346C634.676 406.687 634.911 407.149 634.911 407.63V407.63C634.911 408.112 634.676 408.574 634.257 408.915C633.838 409.255 633.27 409.447 632.677 409.447V409.447Z" fill="#CECFD6"/>
<path d="M627.064 446.038H620.763C618.683 446.038 616.688 445.366 615.217 444.169C613.746 442.973 612.919 441.351 612.919 439.659V418.262C612.919 416.57 613.746 414.947 615.218 413.75C616.689 412.553 618.685 411.881 620.767 411.881H627.067C629.147 411.881 631.142 412.553 632.613 413.749C634.084 414.945 634.911 416.568 634.911 418.26V439.656C634.911 441.349 634.084 442.972 632.613 444.169C631.141 445.365 629.145 446.038 627.064 446.038Z" fill="#CECFD6"/>
<path d="M584.271 452.77C584.272 453.333 584.477 453.882 584.862 454.35C585.246 454.817 585.793 455.181 586.432 455.396C587.071 455.611 587.774 455.667 588.452 455.557C589.13 455.447 589.753 455.176 590.241 454.778C590.73 454.38 591.063 453.873 591.197 453.322C591.332 452.77 591.263 452.199 590.998 451.679C590.733 451.16 590.285 450.716 589.71 450.403C589.135 450.091 588.459 449.924 587.768 449.924C586.84 449.925 585.951 450.225 585.295 450.759C584.639 451.292 584.271 452.016 584.271 452.77Z" fill="#FFBA12"/>
<path d="M565.326 474.008V472.901C565.326 472.901 567.238 466.015 580.762 466.015C594.286 466.015 594.024 474.008 594.024 474.008H565.326Z" fill="#314875"/>
<path d="M594.207 467.035C592.829 466.967 591.473 466.726 590.187 466.32C589.11 465.792 582.668 462.267 581.149 462.831C579.631 463.394 569.56 465.905 569.913 467.104C570.265 468.303 571.195 468.188 571.907 467.975C574.748 467.358 577.65 466.939 580.579 466.722C580.579 466.722 573.393 468.856 573.365 470.411C573.337 471.966 574.868 472.346 575.548 472.935C576.229 473.524 577.051 474.984 578.903 475.097C580.755 475.21 589.79 472.653 591.652 472.535C593.5 472.577 595.349 472.526 597.19 472.384C596.35 470.547 595.353 468.759 594.207 467.035Z" fill="#EEA886"/>
<path d="M647.732 426.96C657.107 425.62 666.976 423.696 666.976 423.696L684.438 423.117C692.021 424.43 699.484 426.163 706.776 428.305C707.374 428.525 707.377 439.93 709.019 442.923L703.786 451.889C703.786 451.889 700.762 469.671 700.135 477.582C699.849 481.212 700.948 512.679 700.948 512.679C696.536 513.617 692.019 514.186 687.465 514.378C675.548 515.446 645.772 513.991 645.587 512.841C645.401 511.691 651.351 470.219 651.616 468.072C652.022 464.775 650.444 449.542 650.444 449.542C648.198 451.994 642.474 463.072 636.508 468.341C632.995 471.441 615.619 473.342 612.343 473.429C605.211 473.624 592.207 474.777 591.826 474.213C591.511 473.875 590.692 464.824 591.511 464.604C592.223 464.411 616.378 463.279 622.565 460.61C624.83 459.631 631.597 447.631 631.597 447.631C631.597 447.631 642.559 428.848 647.732 426.96Z" fill="#323657"/>
<path d="M700.192 511.77H693.403C690.531 511.77 687.686 511.31 685.032 510.416C682.378 509.522 679.967 508.211 677.935 506.56C675.904 504.908 674.293 502.947 673.193 500.788C672.094 498.63 671.528 496.317 671.528 493.98V472.632C671.528 470.296 672.094 467.983 673.193 465.825C674.293 463.666 675.904 461.705 677.935 460.053C679.967 458.401 682.378 457.091 685.032 456.197C687.686 455.303 690.531 454.843 693.403 454.843H700.195C705.997 454.843 711.561 456.717 715.663 460.053C719.765 463.39 722.07 467.914 722.07 472.632V493.978C722.07 498.697 719.765 503.222 715.662 506.559C711.559 509.895 705.994 511.77 700.192 511.77V511.77Z" fill="#E2D2CA"/>
<path d="M680.484 524.987C683.837 525.097 687.18 524.613 690.281 523.569C693.381 522.524 696.165 520.944 698.44 518.938C708.546 509.867 706.728 493.919 706.646 493.245C706.573 492.642 706.208 492.087 705.631 491.703C705.055 491.318 704.314 491.136 703.572 491.196C702.83 491.255 702.148 491.553 701.675 492.021C701.202 492.49 700.978 493.093 701.052 493.696C701.071 493.878 702.684 508.332 694.263 515.879C692.515 517.411 690.374 518.611 687.992 519.395C685.609 520.179 683.044 520.528 680.478 520.416C680.101 520.406 679.725 520.457 679.373 520.568C679.021 520.678 678.7 520.845 678.428 521.058C678.157 521.272 677.941 521.527 677.794 521.81C677.647 522.092 677.571 522.396 677.571 522.703C677.571 523.01 677.647 523.313 677.794 523.596C677.941 523.878 678.157 524.134 678.428 524.347C678.7 524.561 679.021 524.727 679.373 524.838C679.725 524.948 680.101 524.999 680.478 524.989L680.484 524.987Z" fill="#E2D2CA"/>
<path d="M589.223 419.033C589.223 421.304 588.395 423.523 586.844 425.411C585.293 427.299 583.089 428.77 580.509 429.639C577.93 430.508 575.092 430.735 572.353 430.293C569.615 429.85 567.1 428.756 565.126 427.151C563.152 425.545 561.807 423.5 561.263 421.273C560.718 419.046 560.998 416.738 562.066 414.64C563.134 412.543 564.944 410.75 567.265 409.488C569.586 408.227 572.316 407.554 575.107 407.554C578.851 407.554 582.442 408.763 585.089 410.916C587.736 413.069 589.223 415.989 589.223 419.033Z" fill="#EEF0F7"/>
<path d="M584.299 425.369L583.257 428.405C581.357 429.501 579.152 430.196 576.84 430.426C576.421 430.467 575.999 430.495 575.58 430.505C575.425 430.505 575.265 430.505 575.117 430.505C574.66 430.505 574.206 430.49 573.762 430.454C573.267 430.422 572.775 430.369 572.288 430.295C570.189 429.948 568.216 429.216 566.52 428.154C566.318 427.149 566.107 426.04 565.918 425C566.954 424.687 570.256 423.773 572.341 423.207L572.426 423.184L572.562 423.145L572.918 423.048L573.233 422.958L574.068 422.73H574.112H574.134L576.934 422.902L577.404 422.93H577.552L577.615 422.943C577.782 422.979 578.273 423.081 578.925 423.242C580.887 423.621 582.722 424.347 584.299 425.369Z" fill="#D9C7C1"/>
<path d="M575.841 413.333C575.841 413.333 579.199 413.797 578.629 418.072C578.059 422.348 575.091 421.974 574.893 421.969C574.694 421.964 571.91 422.02 571.765 416.789C571.765 416.789 571.721 412.923 575.841 413.333Z" fill="#EEA987"/>
<path d="M577.313 420.73C577.246 421.445 577.276 422.164 577.401 422.874C577.606 423.256 574.704 424.47 572.899 423.089C573.075 422.228 573.16 421.356 573.151 420.484C573.038 419.805 577.313 420.73 577.313 420.73Z" fill="#EEA987"/>
<path d="M578.698 416.863C578.698 416.863 579.07 416.548 579.202 416.863C579.334 417.179 578.607 418.631 578.651 418.695C578.651 418.695 578.585 418.821 578.497 418.749C578.517 418.118 578.584 417.488 578.698 416.863Z" fill="#EEA987"/>
<path d="M571.806 416.748C571.806 416.748 571.45 416.418 571.302 416.748C571.322 417.382 571.478 418.008 571.762 418.598C571.762 418.598 571.875 418.746 571.967 418.68C571.962 418.034 571.908 417.389 571.806 416.748Z" fill="#EEA987"/>
<path d="M578.928 416.502C578.812 417.086 578.705 417.527 578.705 417.527L578.216 418.039C578.235 417.596 578.22 417.152 578.169 416.71C578.141 416.641 578.109 416.52 578.075 416.39C578.018 416.174 577.961 415.928 577.92 415.846C576.17 415.324 574.239 415.375 572.534 415.987C572.534 415.987 572.552 416.162 572.552 416.361C572.552 416.561 572.518 416.848 572.392 416.874C572.152 416.945 572.25 418.219 572.25 418.219L571.859 417.852C571.859 417.852 571.746 417.189 571.636 416.425C571.611 416.246 571.585 416.064 571.56 415.882C571.476 415.34 571.546 414.789 571.765 414.271C571.983 413.754 572.344 413.284 572.82 412.898C574.228 412.462 575.784 412.468 577.186 412.913C577.413 412.919 577.635 412.966 577.835 413.051C578.701 414.056 579.09 415.282 578.928 416.502Z" fill="#E8734D"/>
<path d="M573.377 421.395C573.598 421.599 573.875 421.757 574.184 421.859C574.494 421.96 574.828 422.001 575.16 421.979C575.491 421.992 575.821 421.95 576.131 421.855C576.441 421.76 576.724 421.615 576.962 421.429C576.796 421.707 576.543 421.945 576.229 422.119C575.914 422.293 575.549 422.397 575.17 422.42C574.787 422.391 574.42 422.281 574.106 422.102C573.792 421.922 573.54 421.678 573.377 421.395Z" fill="#C78D71"/>
<path d="M572.556 423.125C572.837 423.499 573.217 423.818 573.668 424.059C574.119 424.3 574.63 424.457 575.164 424.518C576.248 424.595 577.187 423.476 577.628 422.927C576.808 422.685 575.938 422.577 575.067 422.611C574.196 422.645 573.343 422.82 572.556 423.125Z" fill="#EEA987"/>
<path d="M577.316 422.535C576.698 423.128 575.972 423.639 575.164 424.052L576.074 425.192L577.627 422.94L577.316 422.535Z" fill="#EDDAD3"/>
<path d="M572.968 422.697C573.571 423.273 574.324 423.732 575.173 424.042L574.174 425.215L572.426 423.166L572.968 422.697Z" fill="#EDDAD3"/>
<path d="M575.167 424.042L575.948 425.005C575.705 425.11 575.433 425.163 575.157 425.159C574.881 425.155 574.612 425.094 574.373 424.982L575.167 424.042Z" fill="#5073AB"/>
<path d="M585.204 425.182L585.182 425.246C585.097 425.502 584.769 426.447 584.337 427.713C584.177 427.826 584.022 427.938 583.843 428.046C583.663 428.154 583.458 428.287 583.26 428.4C581.36 429.496 579.155 430.191 576.843 430.421C577.051 426.447 577.631 422.925 577.631 422.925C578.087 423.022 578.522 423.119 578.932 423.217C581.013 423.655 583.03 424.274 584.948 425.064C585.128 425.148 585.204 425.182 585.204 425.182Z" fill="#323657"/>
<path d="M572.281 430.293C569.553 429.837 567.051 428.737 565.086 427.131L564.831 426.916C564.582 426.063 564.422 425.505 564.409 425.469C566.916 424.431 569.581 423.667 572.335 423.196C572.335 423.301 572.338 426.524 572.281 430.293Z" fill="#323657"/>
<path d="M575.627 425.113C575.57 426.16 575.564 428.187 575.583 430.505C575.428 430.505 575.268 430.505 575.12 430.505C574.663 430.505 574.209 430.49 573.765 430.454C573.911 428.653 574.227 426.864 574.71 425.102C574.779 424.872 574.82 424.757 574.82 424.757L575.649 424.869C575.627 424.946 575.627 425.031 575.627 425.113Z" fill="#5073AB"/>
<path d="M585.912 426.419C585.43 426.886 584.904 427.321 584.337 427.721C584.177 427.833 584.022 427.946 583.843 428.054C583.843 428.041 584.655 426.13 585.204 425.192C585.575 425.392 585.742 426.081 585.912 426.419Z" fill="#323657"/>
<path d="M565.087 427.111L564.828 426.896C564.512 426.624 564.214 426.339 563.934 426.043C564.021 425.813 564.185 425.607 564.406 425.448L565.087 427.111Z" fill="#323657"/>
<path d="M296.351 211.01H247.929C236.09 211.01 226.492 218.816 226.492 228.444V233.668C226.492 243.296 236.09 251.101 247.929 251.101H296.351C308.19 251.101 317.788 243.296 317.788 233.668V228.444C317.788 218.816 308.19 211.01 296.351 211.01Z" fill="#DFE1E8"/>
<path d="M179.517 412.319H179.495C179.586 412.352 179.599 412.355 179.517 412.319Z" fill="#323657"/>
<path d="M137.125 405.927H202.494C204.944 405.927 206.93 404.312 206.93 402.32V402.317C206.93 400.325 204.944 398.71 202.494 398.71H137.125C134.675 398.71 132.689 400.325 132.689 402.317V402.32C132.689 404.312 134.675 405.927 137.125 405.927Z" fill="#000AFF"/>
<path d="M137.125 418.938H202.494C204.944 418.938 206.93 417.324 206.93 415.331C206.93 413.339 204.944 411.724 202.494 411.724H137.125C134.675 411.724 132.689 413.339 132.689 415.331C132.689 417.324 134.675 418.938 137.125 418.938Z" fill="#000AFF"/>
<path d="M202.494 431.953H137.125C136.542 431.953 135.966 431.859 135.427 431.678C134.889 431.497 134.4 431.231 133.988 430.896C133.577 430.561 133.25 430.164 133.027 429.726C132.804 429.288 132.689 428.819 132.689 428.346C132.689 427.872 132.803 427.403 133.026 426.965C133.248 426.527 133.575 426.129 133.986 425.794C134.398 425.459 134.887 425.193 135.424 425.012C135.962 424.83 136.539 424.736 137.122 424.736H202.494C203.077 424.736 203.654 424.829 204.192 425.011C204.731 425.192 205.22 425.458 205.632 425.793C206.044 426.129 206.37 426.527 206.593 426.964C206.816 427.402 206.93 427.872 206.93 428.346C206.93 429.302 206.462 430.22 205.631 430.896C204.799 431.573 203.671 431.953 202.494 431.953V431.953Z" fill="#000AFF"/>
<path d="M240.136 320.089H242.804C246.266 320.09 249.585 321.209 252.033 323.2C254.48 325.19 255.855 327.89 255.855 330.706V360.269C255.855 363.085 254.48 365.785 252.032 367.776C249.584 369.767 246.263 370.886 242.801 370.886H240.133C236.671 370.886 233.35 369.767 230.902 367.776C228.454 365.785 227.078 363.085 227.078 360.269V330.708C227.078 327.892 228.454 325.191 230.903 323.199C233.352 321.208 236.673 320.089 240.136 320.089V320.089Z" fill="#FE9D00"/>
<path d="M76.3293 461.814C76.9439 462.635 77.3658 463.542 77.5736 464.488C77.9067 465.591 78.4183 466.654 79.0951 467.647C79.905 469.354 80.5229 471.117 80.9412 472.914C80.5435 474.07 80.2519 475.248 80.0686 476.439C80.2166 477.208 80.7521 478.712 79.911 478.814C79.0699 478.917 78.1123 477.677 78.1123 477.677C78.1339 477.87 78.0858 478.065 77.974 478.237C77.8621 478.409 77.6913 478.551 77.4823 478.645C77.1681 478.809 76.8055 478.901 76.4326 478.912C76.0596 478.923 75.6899 478.852 75.3622 478.707C75.3622 478.707 74.8487 479.475 74.2092 479.585C73.8575 479.669 73.4881 479.691 73.125 479.651C72.7619 479.611 72.4133 479.509 72.1018 479.352C71.6405 479.635 71.0754 479.782 70.4983 479.77C70.1314 479.759 69.7742 479.671 69.4625 479.513C69.1508 479.355 68.8953 479.134 68.7216 478.871C68.7216 478.871 67.1465 479.127 66.6803 478.532C66.3729 477.964 66.1803 477.358 66.1101 476.739C65.9493 473.654 66.6348 470.579 68.1168 467.737C68.6901 466.616 68.9413 465.403 68.8512 464.191C68.7611 462.979 68.3322 461.8 67.597 460.743L76.3293 461.814Z" fill="#EEA886"/>
<path d="M78.3361 477.218C78.3361 477.218 78.4779 472.807 77.0477 471.869C75.6175 470.931 75.4726 472.522 75.4726 472.522C75.4726 472.522 75.6679 470.947 74.1054 470.729C72.5429 470.511 72.4799 472.387 72.4799 472.387C72.4429 472.218 72.363 472.058 72.2455 471.917C72.128 471.775 71.9753 471.655 71.7974 471.564C71.6195 471.473 71.4202 471.413 71.2122 471.389C71.0042 471.364 70.7923 471.375 70.5898 471.421C68.9517 471.677 69.3297 473.214 69.3297 473.214C69.3297 473.214 67.7546 471.695 66.7466 473.152C66.2651 473.994 66.0107 474.909 66.0003 475.837C65.99 476.765 66.2241 477.684 66.6867 478.532C66.6867 478.532 67.1687 479.198 68.728 478.873C68.8805 479.113 69.0989 479.321 69.3663 479.481C69.6338 479.64 69.943 479.748 70.2698 479.794C70.5967 479.841 70.9324 479.825 71.2507 479.749C71.5691 479.673 71.8614 479.538 72.1051 479.355C72.1051 479.355 74.4929 480.423 75.3655 478.709C75.6752 478.856 76.0282 478.932 76.3867 478.928C76.7451 478.924 77.0956 478.841 77.4007 478.688C77.7058 478.535 77.954 478.318 78.1187 478.059C78.2835 477.8 78.3586 477.509 78.3361 477.218Z" fill="#DB9C7C"/>
<path d="M94.7328 398.264C94.7328 398.264 85.4461 423.435 82.3085 432.721C81.3256 435.632 78.9441 463.438 78.5283 464.56C78.1125 465.682 66.3276 467.214 66.3276 467.214C66.3276 467.214 67.7547 432.427 67.9027 430.531C68.0508 428.635 80.9004 389.797 84.6396 388.399C87.4433 387.361 88.9239 388.219 92.4552 390.353C93.8443 391.289 94.8187 392.569 95.23 393.997C95.6412 395.426 95.4666 396.924 94.7328 398.264Z" fill="#323657"/>
<path d="M206.55 351.695L185.291 363.003L186.324 364.287L207.583 352.979L206.55 351.695Z" fill="#4DA8F2"/>
<path d="M209.85 358.197C209.759 358.675 209.573 359.137 209.302 359.567C209.302 359.567 208.606 360.241 208.149 360.743C208.028 360.872 207.917 361.007 207.815 361.146C207.379 361.958 206.785 362.707 206.057 363.367C205.046 364.202 201.102 366.856 201.102 366.856L197.725 364.525L194.216 363.244C194.904 360.587 195.839 357.977 197.013 355.435C197.092 355.353 197.177 355.274 197.268 355.2C197.948 354.728 198.687 354.316 199.473 353.97C199.643 353.855 201.448 352.797 202.094 352.945C202.457 353.001 202.796 353.131 203.079 353.324C203.363 353.516 203.581 353.764 203.713 354.044C204.643 354.272 205.476 354.708 206.117 355.302C206.59 355.417 207.024 355.619 207.386 355.893C207.748 356.166 208.029 356.503 208.206 356.878C208.206 356.878 209.777 357.38 209.85 358.197Z" fill="#EFAA88"/>
<path d="M87.1976 570.121C87.1976 570.121 86.3502 574.899 86.2525 575.619C86.1549 576.339 76.8366 575.197 76.8366 575.197L76.0837 569.507C79.8044 569.406 83.5279 569.612 87.1976 570.121Z" fill="#424773"/>
<path d="M86.3468 575.009C88.0073 576.623 89.9647 578.017 92.1494 579.144C95.0035 580.397 99.4862 580.897 101.175 582.195C102.394 583.133 105.61 587.171 93.7592 587.089C81.9082 587.007 76.1969 587.66 74.9274 586.112C73.6579 584.565 76.764 574.687 76.764 574.687C79.9029 575.295 83.1567 575.404 86.3468 575.009Z" fill="#292C47"/>
<path d="M153.912 570.121C153.912 570.121 153.065 574.899 152.967 575.619C152.869 576.339 143.551 575.196 143.551 575.196L142.798 569.507C146.519 569.406 150.242 569.612 153.912 570.121Z" fill="#424773"/>
<path d="M153.058 575.009C154.719 576.622 156.676 578.017 158.861 579.144C161.711 580.397 172.211 581.429 173.9 582.731C175.119 583.668 177.144 587.442 160.47 587.086C148.626 586.83 142.905 587.657 141.638 586.11C140.372 584.563 143.475 574.684 143.475 574.684C146.605 575.345 149.871 575.456 153.058 575.009Z" fill="#292C47"/>
<path d="M94.9094 447.342C94.9094 447.342 86.1613 458.647 86.8134 468.861C87.4655 479.075 83.6412 490.235 82.3275 500.91C80.8627 512.81 74.8679 540.98 74.6474 547.346C74.4269 553.713 75.5925 574.038 75.5925 574.038L87.5946 574.261C87.5946 574.261 97.6752 525.012 100.287 519.986C102.898 514.959 115.842 479.134 116.28 475.112C116.718 471.09 94.9094 447.342 94.9094 447.342Z" fill="#292C47"/>
<path d="M140.962 448.866C140.962 448.866 147.555 476.872 148.424 483.123C149.294 489.374 149.873 513.389 150.314 517.296C150.755 521.203 154.378 568.328 155.534 574.251H140.19C140.19 574.251 128.411 539.922 128.411 523.659C128.411 507.397 119.314 488.337 113.438 477.615C107.563 466.894 94.1184 466.643 90.5051 446.75C90.4988 446.76 136.072 442.564 140.962 448.866Z" fill="#292C47"/>
<path d="M109.507 352.305C109.507 352.305 121.251 348.739 126.663 356.007C132.075 363.275 131.555 377.828 125.636 379.619C119.717 381.41 110.83 380.472 107.793 375.925C104.509 371.16 102.584 365.856 102.161 360.405C102.34 358.634 103.122 356.937 104.42 355.507C105.717 354.076 107.479 352.967 109.507 352.305Z" fill="#EEA886"/>
<path d="M124.36 379.952C124.091 381.235 124.199 382.552 124.675 383.795C125.485 385.076 109.463 385.099 109.463 385.099C108.604 380.778 107.34 376.518 105.682 372.354C103.235 366.518 124.36 379.952 124.36 379.952Z" fill="#EEA886"/>
<path d="M105.701 372.359C105.701 372.359 106.807 373.842 111.321 373.268C115.836 372.694 121.342 367.809 123.226 367.271C125.11 366.733 125.116 365.836 125.116 365.836L126.297 367.238L128.298 367.34C128.298 367.34 126.474 362.97 129.243 361.192C132.012 359.414 126.386 347.05 111.917 351.165C111.917 351.165 100.8 353.657 101.206 358.799C101.613 363.941 103.213 369.797 105.701 372.359Z" fill="#D88A51"/>
<path d="M125.63 383.649C125.63 383.649 125.579 381.223 124.228 380.99C118.736 380.347 113.186 380.09 107.639 380.221V383.039C107.639 383.039 110.84 384.653 125.63 383.649Z" fill="#E2D2CA"/>
<path d="M124.83 363.964C124.575 363.1 121.881 360.633 120.848 363.275C119.815 365.916 122.423 369.464 123.853 369.167C125.283 368.87 125.472 366.149 124.83 363.964Z" fill="#EEA886"/>
<path d="M148.09 387.32C138.782 386.321 125.633 383.644 125.633 383.644L107.639 383.049C99.8252 384.401 92.1344 386.187 84.6206 388.393C83.9905 388.621 83.9905 400.375 82.3083 403.457L87.7015 412.708C87.7015 412.708 90.817 431.033 91.4628 439.185C91.7589 442.925 85.0395 474.267 85.0395 474.267C91.4307 475.626 97.9449 476.568 104.52 477.085C116.806 478.184 147.482 476.688 147.678 475.507C147.873 474.326 141.733 431.584 141.466 429.37C141.05 425.973 142.905 407.92 142.905 407.92C145.74 406.127 170.627 396.735 177.425 391.837C179.243 390.525 186.913 384.451 189.096 382.358C194.387 377.534 199.335 372.47 203.918 367.189C204.794 366.408 195.529 362.321 194.688 362.083C193.954 361.883 183.514 372.884 179.495 376.43C176.546 378.555 173.462 380.552 170.255 382.414C170.255 382.414 153.915 387.592 148.09 387.32Z" fill="#323657"/>
<path d="M106.162 353.163C106.162 353.163 91.1884 354.116 105.702 372.359L106.162 353.163Z" fill="#D88A51"/>
<path d="M207.585 352.976L208.813 351.452L206.551 351.692L207.585 352.976Z" fill="#DFE1E8"/>
<path d="M221.168 172.012H222.869C223.062 172.012 223.254 172.033 223.439 172.076C223.619 172.118 223.79 172.182 223.946 172.266C224.101 172.349 224.24 172.449 224.362 172.563C224.483 172.676 224.581 172.804 224.652 172.942C225.059 173.75 225.471 174.55 225.887 175.343C226.303 176.135 226.723 176.936 227.147 177.746C227.218 177.877 227.268 178.016 227.295 178.158C227.316 178.284 227.331 178.396 227.339 178.494C227.358 178.304 227.404 178.116 227.478 177.935C227.568 177.713 227.673 177.495 227.793 177.282L230.042 172.927C230.105 172.797 230.198 172.679 230.316 172.578C230.444 172.465 230.589 172.365 230.747 172.281C230.91 172.194 231.086 172.125 231.27 172.074C231.449 172.023 231.636 171.997 231.825 171.997H233.526L232.323 174.326L233.664 176.921C233.805 177.191 233.943 177.455 234.077 177.715C234.202 177.948 234.277 178.197 234.298 178.45C234.298 178.404 234.313 178.35 234.323 178.291C234.337 178.215 234.356 178.138 234.38 178.063C234.415 177.953 234.457 177.845 234.506 177.738C234.562 177.612 234.64 177.457 234.739 177.274L236.988 172.919C237.05 172.791 237.141 172.673 237.256 172.571C237.382 172.457 237.526 172.357 237.684 172.273C237.847 172.187 238.023 172.117 238.207 172.066C238.385 172.016 238.573 171.99 238.762 171.989H240.463L235.794 181.02H232.795L231.179 177.689C231.122 177.568 231.073 177.445 231.031 177.32C230.989 177.194 230.967 177.064 230.968 176.934C230.967 176.808 230.993 176.683 231.044 176.565C230.909 176.874 230.66 177.398 230.297 178.138C229.934 178.877 229.45 179.84 228.845 181.025H225.843L221.168 172.012Z" fill="white"/>
<path d="M240.45 176.524C240.446 175.907 240.599 175.297 240.897 174.73C241.479 173.616 242.57 172.728 243.941 172.256C244.641 172.014 245.393 171.89 246.154 171.89C246.914 171.89 247.666 172.014 248.367 172.256C249.737 172.728 250.828 173.616 251.41 174.73C251.706 175.3 251.859 175.912 251.859 176.53C251.859 177.148 251.706 177.761 251.41 178.33C250.828 179.444 249.737 180.331 248.367 180.805C247.666 181.046 246.914 181.17 246.154 181.17C245.393 181.17 244.641 181.046 243.941 180.805C242.57 180.331 241.479 179.444 240.897 178.33C240.597 177.759 240.444 177.144 240.45 176.524ZM243.197 176.524C243.195 176.843 243.274 177.158 243.43 177.451C243.576 177.738 243.79 177.999 244.06 178.22C244.333 178.437 244.653 178.611 245.005 178.732C245.366 178.857 245.754 178.921 246.146 178.921C246.537 178.921 246.925 178.857 247.286 178.732C247.638 178.611 247.958 178.437 248.231 178.22C248.501 177.999 248.715 177.738 248.861 177.451C249.014 177.157 249.093 176.84 249.093 176.521C249.093 176.202 249.014 175.885 248.861 175.591C248.559 175.015 247.995 174.556 247.286 174.31C246.925 174.186 246.537 174.121 246.146 174.121C245.754 174.121 245.366 174.186 245.005 174.31C244.296 174.556 243.732 175.015 243.43 175.591C243.272 175.888 243.193 176.208 243.197 176.531V176.524Z" fill="white"/>
<path d="M255.766 172.01L255.892 172.174C255.966 172.276 256.01 172.391 256.018 172.509C256.018 172.584 256.018 172.655 256.034 172.724C256.05 172.794 256.034 172.853 256.034 172.904C256.189 172.755 256.365 172.621 256.557 172.504C256.973 172.25 257.449 172.066 257.956 171.966C258.215 171.915 258.482 171.889 258.75 171.889C259.068 171.892 259.385 171.924 259.695 171.984C260.038 172.049 260.375 172.135 260.703 172.24C260.668 172.394 260.633 172.55 260.602 172.709C260.57 172.868 260.536 173.022 260.501 173.178C260.471 173.322 260.406 173.46 260.312 173.585C260.221 173.701 260.105 173.803 259.969 173.885C259.828 173.97 259.67 174.034 259.502 174.075C259.33 174.117 259.15 174.139 258.97 174.139C258.946 174.141 258.922 174.141 258.898 174.139C258.838 174.135 258.778 174.135 258.718 174.139C258.449 174.138 258.181 174.166 257.921 174.22C257.677 174.271 257.441 174.345 257.218 174.441C257.02 174.525 256.836 174.63 256.67 174.753C256.528 174.857 256.409 174.982 256.321 175.12C256.233 175.318 256.183 175.527 256.173 175.737V181.038H253.404V172.01H255.766Z" fill="white"/>
<path d="M264.817 181.035H262.048V168.918H264.817V181.035ZM268.556 172.888C268.635 172.753 268.741 172.629 268.871 172.522C269.151 172.302 269.498 172.147 269.876 172.071C270.073 172.031 270.275 172.012 270.477 172.012H272.368L269.217 176.075C269.137 176.164 269.036 176.24 268.921 176.298C268.858 176.332 268.79 176.36 268.72 176.383C268.786 176.407 268.852 176.435 268.915 176.465C269.038 176.518 269.146 176.592 269.23 176.683L272.654 181.038H270.764C270.362 181.044 269.963 180.972 269.602 180.828C269.26 180.684 268.986 180.454 268.82 180.172L266.244 176.921C266.181 176.841 266.108 176.767 266.026 176.7C265.953 176.64 265.874 176.584 265.79 176.534C265.711 176.488 265.648 176.452 265.595 176.426C265.566 176.411 265.535 176.398 265.503 176.388C265.535 176.38 265.566 176.368 265.595 176.355C265.66 176.325 265.723 176.291 265.784 176.255C265.867 176.205 265.946 176.15 266.02 176.091C266.107 176.021 266.182 175.942 266.24 175.855L268.556 172.888Z" fill="white"/>
</svg>
