<svg width="14" height="14" viewBox="0 0 14 14" fill="none" xmlns="http://www.w3.org/2000/svg">
<path d="M7 6C6.16667 6 5.45833 5.70833 4.875 5.125C4.29167 4.54167 4 3.83333 4 3C4 2.18333 4.29167 1.479 4.875 0.887C5.45833 0.295667 6.16667 0 7 0C7.83333 0 8.54167 0.295667 9.125 0.887C9.70833 1.479 10 2.18333 10 3C10 3.83333 9.70833 4.54167 9.125 5.125C8.54167 5.70833 7.83333 6 7 6ZM0 13.25V11.6C0 11.1833 0.121 10.7957 0.363 10.437C0.604333 10.079 0.925 9.8 1.325 9.6C2.275 9.15 3.221 8.81233 4.163 8.587C5.10433 8.36233 6.05 8.25 7 8.25C7.95 8.25 8.896 8.36233 9.838 8.587C10.7793 8.81233 11.725 9.15 12.675 9.6C13.075 9.8 13.396 10.079 13.638 10.437C13.8793 10.7957 14 11.1833 14 11.6V13.25H0ZM1 12.25H13V11.6C13 11.3667 12.9293 11.154 12.788 10.962C12.646 10.7707 12.45 10.6083 12.2 10.475C11.3667 10.075 10.5127 9.771 9.638 9.563C8.76267 9.35433 7.88333 9.25 7 9.25C6.11667 9.25 5.23767 9.35433 4.363 9.563C3.48767 9.771 2.63333 10.075 1.8 10.475C1.55 10.6083 1.35433 10.7707 1.213 10.962C1.071 11.154 1 11.3667 1 11.6V12.25ZM7 5C7.55 5 8.021 4.804 8.413 4.412C8.80433 4.02067 9 3.55 9 3C9 2.45 8.80433 1.97933 8.413 1.588C8.021 1.196 7.55 1 7 1C6.45 1 5.97933 1.196 5.588 1.588C5.196 1.97933 5 2.45 5 3C5 3.55 5.196 4.02067 5.588 4.412C5.97933 4.804 6.45 5 7 5Z" fill="#1C1B1F"/>
</svg>
