<svg width="70" height="50" viewBox="0 0 70 50" fill="none" xmlns="http://www.w3.org/2000/svg">
<path d="M64.2212 24.518C59.6595 18.0874 52.3247 12.0085 43.5429 7.39661C43.4726 7.35642 43.4123 7.32628 43.342 7.28608C34.4698 2.65406 25.2158 0.0717893 17.268 0.00145497C9.28004 -0.0688794 3.57291 2.41292 1.19159 6.98465C-1.19978 11.5564 0.0360979 17.6554 4.64802 24.1663C5.6528 25.5831 6.78819 26.9797 8.06426 28.3462L8.29536 28.2156C7.01929 26.839 5.87385 25.4323 4.86907 24.0056C0.307388 17.585 -0.908392 11.5865 1.42269 7.10523C3.76382 2.63397 9.39057 0.20241 17.258 0.262697C25.1656 0.333031 34.3894 2.91531 43.2214 7.51718C43.2817 7.55737 43.352 7.59757 43.4223 7.62771C52.1639 12.2296 59.4686 18.2683 64.0102 24.6687C68.5618 31.0892 69.7877 37.0978 67.4465 41.5791C65.1054 46.0504 59.4887 48.4819 51.6113 48.4116C48.0041 48.3714 44.1156 47.8288 40.1166 46.7839L39.7851 46.9748C43.8946 48.07 47.9036 48.6527 51.6113 48.6829C59.5892 48.7432 65.2963 46.2714 67.6776 41.6997C70.069 37.1279 68.8432 31.029 64.2212 24.518Z" fill="url(#paint0_linear_140_85)"/>
<path d="M68.8134 7.73825C66.422 3.16652 60.7149 0.684722 52.7369 0.755056C44.7892 0.82539 35.5251 3.40767 26.663 8.03969C26.5926 8.07988 26.5223 8.11002 26.452 8.15021C17.6803 12.7621 10.3454 18.841 5.77368 25.2716C1.16176 31.7826 -0.0640682 37.8815 2.31725 42.4533C4.70862 47.025 10.4157 49.4968 18.3937 49.4365C22.6841 49.3963 27.3563 48.6226 32.139 47.1858L31.8175 47.0049C27.1453 48.3915 22.5836 49.125 18.3937 49.1652C10.5162 49.2355 4.88948 46.804 2.54835 42.3327C0.217269 37.8514 1.43305 31.8428 5.99473 25.4223C10.5665 18.9717 17.9616 12.8827 26.7836 8.27078C35.6155 3.66891 44.8293 1.08663 52.7369 1.0163C60.6144 0.956011 66.2411 3.38757 68.5722 7.85883C70.9133 12.3401 69.6875 18.3386 65.1359 24.7592C64.3722 25.8343 63.5282 26.9094 62.6038 27.9544L62.8349 28.095C63.7493 27.0501 64.5832 25.985 65.3469 24.9199C69.9688 18.409 71.1947 12.31 68.8134 7.73825Z" fill="url(#paint1_linear_140_85)"/>
<path d="M63.9598 32.7873L41.2418 45.99L40.9103 46.1809L39.1619 47.1958C37.2328 48.3211 34.0878 48.3211 32.1486 47.1958L32.1386 47.1857L31.817 47.0049L7.18996 32.7873C5.25075 31.6619 5.2407 29.8433 7.16987 28.728L9.18947 27.5524L9.42057 27.4218L31.9678 14.3094C33.8969 13.1941 37.0318 13.1941 38.9811 14.3094L62.6034 27.9543L62.8345 28.095L63.9397 28.728C65.8789 29.8433 65.889 31.6619 63.9598 32.7873Z" fill="url(#paint2_linear_140_85)"/>
<path d="M68.7829 22.9104C68.7728 22.9304 68.7728 22.9505 68.7628 22.9706C68.7025 23.1415 68.6121 23.3123 68.5015 23.4831C68.4814 23.5132 68.4613 23.5434 68.4413 23.5735C68.3207 23.7443 68.17 23.9151 67.9891 24.0658C67.969 24.0859 67.9489 24.096 67.9288 24.1161C67.7379 24.2769 67.5169 24.4376 67.2657 24.5883L39.574 40.6849C39.3329 40.8255 39.0716 40.9461 38.8004 41.0466C38.73 41.0767 38.6597 41.1069 38.5893 41.127C38.4185 41.1872 38.2477 41.2375 38.0669 41.2877C37.886 41.338 37.7051 41.3882 37.5142 41.4284C37.2932 41.4786 37.0721 41.5188 36.841 41.549C36.7908 41.559 36.7305 41.5691 36.6803 41.5691C36.3688 41.5992 36.0573 41.6193 35.7458 41.6193C35.6956 41.6193 35.6454 41.6193 35.5951 41.6193C35.2836 41.6193 34.9822 41.5992 34.6707 41.5691C34.6205 41.5691 34.5803 41.559 34.5301 41.549C34.2286 41.5088 33.9272 41.4585 33.6358 41.3982C33.5856 41.3882 33.5353 41.3681 33.475 41.3581C33.2138 41.2978 32.9526 41.2174 32.7114 41.127C32.6712 41.1069 32.621 41.0968 32.5707 41.0767C32.2693 40.9662 31.988 40.8356 31.7267 40.6748L3.87432 24.5984C3.06045 24.1261 2.54801 23.5434 2.34706 22.9304C2.27673 22.7295 2.24658 22.5185 2.24658 22.3175V23.8046C2.24658 24.6285 2.78916 25.4625 3.88437 26.0854L31.7569 42.1719C32.0081 42.3126 32.2693 42.4432 32.5506 42.5537C32.5607 42.5638 32.5808 42.5638 32.6009 42.5738C32.6411 42.5939 32.6913 42.604 32.7415 42.6241C32.9023 42.6844 33.0631 42.7446 33.2339 42.7848C33.3243 42.815 33.4147 42.8351 33.5152 42.8552C33.5655 42.8652 33.6157 42.8853 33.676 42.8954C33.7262 42.9054 33.7664 42.9155 33.8167 42.9255C33.9975 42.9657 34.1784 42.9958 34.3693 43.026C34.4396 43.036 34.4999 43.036 34.5702 43.0461C34.6205 43.0561 34.6607 43.0561 34.7109 43.0662C34.7812 43.0762 34.8415 43.0863 34.9119 43.0863C35.0927 43.0963 35.2736 43.1064 35.4544 43.1164C35.5147 43.1164 35.565 43.1164 35.6253 43.1164C35.6755 43.1164 35.7257 43.1164 35.776 43.1164C35.8564 43.1164 35.9468 43.1164 36.0272 43.1164C36.2382 43.1064 36.4391 43.0963 36.6401 43.0762C36.6602 43.0762 36.6903 43.0662 36.7104 43.0662C36.7607 43.0561 36.8209 43.0461 36.8712 43.0461C37.0319 43.026 37.1927 43.0059 37.3434 42.9757C37.4138 42.9657 37.474 42.9356 37.5444 42.9255C37.7353 42.8853 37.9161 42.8351 38.097 42.7848C38.1975 42.7547 38.298 42.7446 38.3884 42.7145C38.4688 42.6944 38.5391 42.6542 38.6094 42.6341C38.6798 42.604 38.7501 42.5839 38.8204 42.5537C39.0917 42.4432 39.353 42.3226 39.5941 42.192L67.2858 26.1055C67.3059 26.0955 67.336 26.0754 67.3561 26.0654C67.5771 25.9347 67.7781 25.784 67.9489 25.6333C67.969 25.6132 67.9891 25.6032 68.0092 25.5831C68.0192 25.573 68.0393 25.5529 68.0594 25.5429C68.1901 25.4223 68.3006 25.3017 68.4011 25.1711C68.4212 25.141 68.4413 25.1108 68.4613 25.0807C68.4814 25.0505 68.5015 25.0204 68.5216 24.9902C68.5518 24.94 68.592 24.8898 68.6221 24.8395C68.6824 24.739 68.7326 24.6285 68.7728 24.528C68.7829 24.5079 68.7829 24.4979 68.7829 24.4778C68.7929 24.4577 68.7929 24.4376 68.803 24.4175C68.8231 24.3472 68.8432 24.2869 68.8633 24.2166C68.8834 24.1161 68.8934 24.0056 68.9035 23.895C68.9035 23.8749 68.9035 23.8649 68.9035 23.8448V22.3577C68.8733 22.5285 68.8432 22.7194 68.7829 22.9104Z" fill="#5CA4E6"/>
<path d="M67.2355 20.0568C69.4058 21.3128 69.4159 23.3424 67.2657 24.5883L39.574 40.6849C37.4238 41.9408 33.9071 41.9408 31.7468 40.6849L3.87432 24.5984C1.70401 23.3424 1.69396 21.3128 3.84418 20.0668L31.5459 3.97033C33.7061 2.71436 37.2128 2.71436 39.3731 3.97033L67.2355 20.0568Z" fill="url(#paint3_linear_140_85)"/>
<defs>
<linearGradient id="paint0_linear_140_85" x1="-2.06971" y1="24.3435" x2="66.802" y2="24.3435" gradientUnits="userSpaceOnUse">
<stop stop-color="white"/>
<stop offset="0.0849" stop-color="#F6F9FF"/>
<stop offset="0.2253" stop-color="#DDEAFF"/>
<stop offset="0.404" stop-color="#B4D1FF"/>
<stop offset="0.6139" stop-color="#7BAFFF"/>
<stop offset="0.8472" stop-color="#3384FF"/>
<stop offset="1" stop-color="#0065FF"/>
</linearGradient>
<linearGradient id="paint1_linear_140_85" x1="60.4549" y1="36.6899" x2="2.84298" y2="9.82495" gradientUnits="userSpaceOnUse">
<stop stop-color="white"/>
<stop offset="0.081" stop-color="#F6F9FF"/>
<stop offset="0.2151" stop-color="#DDEAFF"/>
<stop offset="0.3857" stop-color="#B4D1FF"/>
<stop offset="0.5862" stop-color="#7BAFFF"/>
<stop offset="0.8089" stop-color="#3384FF"/>
<stop offset="0.9548" stop-color="#0065FF"/>
</linearGradient>
<linearGradient id="paint2_linear_140_85" x1="35.562" y1="13.4686" x2="35.562" y2="48.0354" gradientUnits="userSpaceOnUse">
<stop stop-color="white"/>
<stop offset="0.0849" stop-color="#F6F9FF"/>
<stop offset="0.2253" stop-color="#DDEAFF"/>
<stop offset="0.404" stop-color="#B4D1FF"/>
<stop offset="0.6139" stop-color="#7BAFFF"/>
<stop offset="0.8472" stop-color="#3384FF"/>
<stop offset="1" stop-color="#0065FF"/>
</linearGradient>
<linearGradient id="paint3_linear_140_85" x1="73.8818" y1="19.5118" x2="-10.2187" y2="25.6878" gradientUnits="userSpaceOnUse">
<stop stop-color="white"/>
<stop offset="0.0849" stop-color="#F6F9FF"/>
<stop offset="0.2253" stop-color="#DDEAFF"/>
<stop offset="0.404" stop-color="#B4D1FF"/>
<stop offset="0.6139" stop-color="#7BAFFF"/>
<stop offset="0.8472" stop-color="#3384FF"/>
<stop offset="1" stop-color="#0065FF"/>
</linearGradient>
</defs>
</svg>
