<svg width="26" height="26" viewBox="0 0 26 26" fill="none" xmlns="http://www.w3.org/2000/svg">
<rect width="26" height="26" rx="13" fill="#D9D9D9"/>
<path d="M9.82678 17.008C11.0121 16.056 11.9408 15.2767 12.6128 14.67C13.2848 14.054 13.8495 13.4147 14.3068 12.752C14.7735 12.08 15.0068 11.422 15.0068 10.778C15.0068 10.1713 14.8575 9.69533 14.5588 9.35C14.2695 8.99533 13.7981 8.818 13.1448 8.818C12.5101 8.818 12.0155 9.01866 11.6608 9.42C11.3155 9.812 11.1288 10.3393 11.1008 11.002H9.86878C9.90612 9.95667 10.2235 9.14933 10.8208 8.58C11.4181 8.01066 12.1881 7.726 13.1308 7.726C14.0921 7.726 14.8528 7.992 15.4128 8.524C15.9821 9.056 16.2668 9.78867 16.2668 10.722C16.2668 11.4967 16.0335 12.2527 15.5668 12.99C15.1095 13.718 14.5868 14.362 13.9988 14.922C13.4108 15.4727 12.6595 16.1167 11.7448 16.854L16.5608 16.854V17.918L9.82678 17.918V17.008Z" fill="white"/>
</svg>
